<svg width="311" height="54" viewBox="0 0 311 54" fill="none" xmlns="http://www.w3.org/2000/svg">
<path d="M15.064 17.4L13.912 20.024C13.912 20.28 14.0187 20.6213 14.232 21.048C14.4453 21.432 14.6373 21.624 14.808 21.624C16.1307 21.1973 16.792 20.8347 16.792 20.536C16.792 20.4507 17.2827 20.1307 18.264 19.576C19.2453 19.0213 19.736 18.4027 19.736 17.72C19.736 17.5493 19.6507 17.3147 19.48 17.016C19.3093 16.7173 19.224 16.3973 19.224 16.056C19.224 15.7147 19.352 15.2027 19.608 14.52L19.928 13.56C19.928 12.9627 19.6293 12.2373 19.032 11.384C18.4347 10.5307 17.88 10.104 17.368 10.104C16.856 10.104 16.3013 10.3387 15.704 10.808C15.1067 11.2347 14.7867 11.5547 14.744 11.768V11.896L15.064 17.4ZM14.936 36.28L14.68 39.864C14.68 40.6747 14.7867 41.4 15 42.04C15.256 42.68 15.512 43 15.768 43C16.1093 43 16.728 42.8933 17.624 42.68C18.5627 42.424 19.1813 42.168 19.48 41.912C19.9067 41.4853 20.3547 40.76 20.824 39.736C21.2933 38.6693 21.528 37.944 21.528 37.56C21.528 37.1333 21.1867 36.5147 20.504 35.704C19.8213 34.8933 19.48 34.3813 19.48 34.168L19.992 31.992C19.992 31.5227 19.608 31.0747 18.84 30.648C18.1147 30.1787 17.56 29.944 17.176 29.944C16.792 29.944 16.28 30.392 15.64 31.288C15.0427 32.1413 14.744 32.696 14.744 32.952L14.936 35.704V36.28ZM32.024 42.04C31.0853 42.5947 30.616 43.128 30.616 43.64C30.616 44.1093 30.9147 44.7707 31.512 45.624C31.512 45.9227 31 46.5413 29.976 47.48C28.9947 48.4187 28.12 49.1653 27.352 49.72C26.584 50.232 25.3467 50.8507 23.64 51.576C21.976 52.3013 20.7173 52.664 19.864 52.664C19.0533 52.664 17.7093 52.3227 15.832 51.64C13.9547 51 12.952 50.68 12.824 50.68C12.696 50.68 12.2693 51.064 11.544 51.832C10.8187 52.6427 10.2427 53.048 9.816 53.048C8.36533 53.048 6.50933 52.3653 4.248 51C2.02933 49.6347 0.92 48.696 0.92 48.184C0.92 48.0987 1.06933 47.7147 1.368 47.032C2.22133 45.0693 2.648 42.424 2.648 39.096L2.52 36.216C2.52 36.1733 2.66933 36.088 2.968 35.96C3.94933 35.576 4.44 35.0427 4.44 34.36C4.44 33.6773 4.07733 33.0373 3.352 32.44C2.66933 31.8427 2.328 31.5013 2.328 31.416V31.352C2.62667 30.4133 2.776 28.792 2.776 26.488L2.584 18.36V17.464C2.584 17.208 2.41333 16.824 2.072 16.312C1.77333 15.8 1.624 15.3947 1.624 15.096C1.624 14.7547 1.90133 14.2213 2.456 13.496C3.01067 12.7707 3.288 12.1733 3.288 11.704C3.288 11.2347 2.776 10.168 1.752 8.504C0.770667 6.84 0.28 5.98667 0.28 5.944C0.28 5.38933 1.13333 4.62133 2.84 3.64C4.54667 2.616 5.848 2.104 6.744 2.104C8.62133 1.16533 10.0507 0.695999 11.032 0.695999C11.416 0.695999 12.0133 1.42133 12.824 2.872C13.6773 4.32266 14.168 5.048 14.296 5.048C14.424 5.048 15.0213 4.728 16.088 4.088C19.2027 2.21067 21.4853 1.272 22.936 1.272C24.4293 1.272 26.2427 1.93333 28.376 3.256C30.5093 4.536 31.576 5.56 31.576 6.328L30.744 7.16C30.1893 7.71466 29.912 8.26933 29.912 8.824C29.912 9.29333 30.3173 9.63467 31.128 9.848C31.9813 10.0187 32.408 10.1467 32.408 10.232C32.408 14.2853 31.4267 17.2933 29.464 19.256C28.9947 19.7253 28.2693 20.28 27.288 20.92C26.3493 21.56 25.6027 22.1573 25.048 22.712C24.536 23.224 24.28 23.8213 24.28 24.504C24.4507 25.144 24.664 25.464 24.92 25.464C25.0053 25.464 25.496 25.2293 26.392 24.76C27.3307 24.248 28.1413 23.992 28.824 23.992C29.08 23.992 29.6347 24.504 30.488 25.528C31.384 26.5093 32.2587 27.9387 33.112 29.816C34.008 31.6933 34.456 33.2933 34.456 34.616C34.456 35.9387 34.3067 37.304 34.008 38.712C33.7093 40.12 33.56 40.9307 33.56 41.144C33.56 41.3147 33.4533 41.464 33.24 41.592C32.728 41.8907 32.3227 42.04 32.024 42.04ZM50.384 24.184C50.8107 24.184 51.664 23.6507 52.944 22.584C54.2667 21.5173 54.928 20.856 54.928 20.6C54.928 20.3013 54.7787 19.8747 54.48 19.32C54.1813 18.7227 54.032 18.3173 54.032 18.104C54.032 17.848 54.2453 17.4427 54.672 16.888C55.0987 16.3333 55.312 15.9707 55.312 15.8C55.312 14.2213 55.12 12.8773 54.736 11.768C54.3947 10.6587 54.032 9.93333 53.648 9.592L53.072 9.08C52.4747 9.08 51.6213 9.44267 50.512 10.168C49.4453 10.8507 48.912 11.32 48.912 11.576V11.64C49.168 12.024 49.424 12.728 49.68 13.752C49.9787 14.7333 50.128 15.672 50.128 16.568C50.128 16.6533 49.9573 16.8667 49.616 17.208C49.2747 17.5493 49.0613 17.72 48.976 17.72C49.232 19.7253 49.36 21.1547 49.36 22.008C49.36 22.8613 49.3387 23.3733 49.296 23.544C49.6373 23.9707 50 24.184 50.384 24.184ZM67.344 11.192C67.7707 11.192 67.984 12.0027 67.984 13.624C67.984 15.2453 67.8773 16.7173 67.664 18.04C67.4933 19.3627 67.28 20.152 67.024 20.408C64.9333 22.5413 62.5013 24.3333 59.728 25.784C59.5147 26.2107 59.408 26.488 59.408 26.616C59.408 26.744 59.4507 26.808 59.536 26.808C60.9867 26.808 62.5867 27.4053 64.336 28.6C66.128 29.752 67.024 30.6907 67.024 31.416C66.9387 32.0133 66.896 32.8027 66.896 33.784C66.896 39.5867 68.304 43.896 71.12 46.712V46.776C71.12 47.16 70.3093 48.0773 68.688 49.528C67.0667 50.936 66.0213 51.64 65.552 51.64C63.8027 51.64 62.032 51.4907 60.24 51.192C58.448 50.8933 57.296 50.488 56.784 49.976C56.7413 49.9333 56.6987 49.592 56.656 48.952C56.528 46.9893 56.4 45.7947 56.272 45.368C56.272 45.2827 56.4213 45.1547 56.72 44.984C57.616 44.3867 58.064 43.7467 58.064 43.064C58.064 42.68 57.6587 42.4453 56.848 42.36C56.0373 42.232 55.632 42.0827 55.632 41.912C55.632 40.5467 55.44 38.456 55.056 35.64L54.864 34.232C54.736 33.72 54.4587 33.1867 54.032 32.632C53.6053 32.0773 53.2 31.672 52.816 31.416L52.24 30.968C51.5573 30.968 50.576 31.4587 49.296 32.44L48.656 32.888C48.656 33.1867 49.168 34.0187 50.192 35.384C49.6373 38.2 49.36 40.568 49.36 42.488V43.192C49.5307 43.192 49.744 43.3413 50 43.64C50.256 43.896 50.384 44.088 50.384 44.216L50.832 49.656C50.832 49.9973 50.7893 50.168 50.704 50.168C49.8507 50.168 48.6133 50.6373 46.992 51.576C45.4133 52.5147 44.1973 52.984 43.344 52.984C43.3013 52.984 43.0667 52.9413 42.64 52.856C41.1467 52.5573 40.1227 52.408 39.568 52.408C38.6293 52.408 37.456 51.7253 36.048 50.36L35.344 49.72C35.9413 48.5253 36.304 46.328 36.432 43.128L36.496 41.528C36.496 41.4853 36.6667 41.3787 37.008 41.208C37.392 40.9947 37.7547 40.7173 38.096 40.376C38.4373 39.992 38.608 39.608 38.608 39.224C38.608 38.9253 38.2667 38.648 37.584 38.392C36.944 38.136 36.624 37.9227 36.624 37.752C36.624 35.5333 36.7947 33.4 37.136 31.352C37.52 29.304 37.712 28.1733 37.712 27.96C37.712 27.7467 37.6053 27.5333 37.392 27.32C37.2213 27.1067 37.1147 26.168 37.072 24.504C37.0293 18.8293 36.7733 15.2027 36.304 13.624C36.304 13.5387 36.496 13.3893 36.88 13.176C37.264 12.92 37.456 12.6853 37.456 12.472C37.456 11.064 36.816 9.18666 35.536 6.84C35.152 6.11466 34.96 5.73067 34.96 5.688C34.96 5.432 35.5147 4.96266 36.624 4.28C37.776 3.55466 39.2053 2.89333 40.912 2.296C42.6613 1.656 44.176 1.336 45.456 1.336C45.7973 1.336 46.16 1.912 46.544 3.064C46.928 4.17333 47.12 5.02666 47.12 5.624C47.2907 5.79466 47.4613 5.88 47.632 5.88C47.8027 5.88 47.9307 5.83733 48.016 5.752C50.4053 3.448 51.728 2.25333 51.984 2.168C54.0747 1.95467 56.272 1.848 58.576 1.848C60.9227 1.848 62.352 2.104 62.864 2.616C64.9973 4.70667 66.064 6.60533 66.064 8.312C65.04 9.08 64.528 9.80533 64.528 10.488C64.528 11.0427 64.9973 11.32 65.936 11.32L67.344 11.192ZM85.7245 38.008C85.6392 38.8187 85.5965 40.2267 85.5965 42.232C85.5965 44.2373 86.1725 46.392 87.3245 48.696C87.3245 48.9093 87.0685 49.1867 86.5565 49.528C86.0872 49.8693 85.7458 50.1253 85.5325 50.296C85.3192 50.424 85.0205 50.6373 84.6365 50.936C84.2952 51.2347 84.0178 51.4693 83.8045 51.64C83.2072 52.1093 82.7805 52.344 82.5245 52.344C81.2872 52.344 79.2392 52.1093 76.3805 51.64C73.5645 51.1707 72.1565 50.7013 72.1565 50.232C72.1565 49.976 72.2632 48.9093 72.4765 47.032C72.6898 45.1547 72.8178 44.1093 72.8605 43.896L73.3085 43C73.6925 38.776 73.8845 36.0027 73.8845 34.68C73.8845 33.3573 73.8205 31.7147 73.6925 29.752C73.6072 27.7893 73.5005 26.2533 73.3725 25.144C73.2872 23.992 73.2445 23.3947 73.2445 23.352C73.2445 23.2667 73.4152 23.1173 73.7565 22.904C74.6952 22.264 75.1645 21.5813 75.1645 20.856C75.1645 20.1307 74.8018 19.5973 74.0765 19.256C73.3938 18.872 73.0525 18.616 73.0525 18.488C73.0525 18.0613 73.1592 17.08 73.3725 15.544C73.5858 13.9653 73.6925 12.7493 73.6925 11.896C73.6925 11.0427 73.4152 9.848 72.8605 8.312C72.3485 6.776 72.0925 5.90133 72.0925 5.688C72.0925 5.34667 73.0738 4.57867 75.0365 3.384C77.0418 2.14666 78.4498 1.528 79.2605 1.528C80.1138 1.528 81.5005 1.80533 83.4205 2.36C85.3405 2.872 86.3005 3.448 86.3005 4.088C86.3005 4.55733 86.0658 5.73066 85.5965 7.608C85.1272 9.48533 84.8925 10.552 84.8925 10.808C84.8925 11.064 85.0205 11.2987 85.2765 11.512C85.5752 11.6827 85.7245 11.896 85.7245 12.152C85.2552 17.016 85.0205 20.3013 85.0205 22.008C85.0205 23.672 85.0418 24.6533 85.0845 24.952C85.1272 25.208 85.2552 25.5067 85.4685 25.848C85.6818 26.1893 85.7885 26.5307 85.7885 26.872C85.7885 26.9147 85.4472 27.2133 84.7645 27.768C84.1245 28.3227 83.8045 28.8133 83.8045 29.24C83.8045 29.6667 84.1672 30.1787 84.8925 30.776C85.6178 31.3733 85.9805 31.992 85.9805 32.632C85.8525 33.4853 85.7672 33.9547 85.7245 34.04C85.7245 34.0827 85.4045 34.3387 84.7645 34.808C84.1245 35.2347 83.8045 35.5333 83.8045 35.704V36.152C83.8045 36.7067 84.2312 37.1333 85.0845 37.432C85.5112 37.6027 85.7245 37.7947 85.7245 38.008ZM105.137 24.952C105.094 26.36 104.881 27.512 104.497 28.408C104.156 29.304 103.985 30.9467 103.985 33.336C103.985 35.7253 104.156 37.944 104.497 39.992C104.497 40.8027 104.028 41.6133 103.089 42.424C102.79 42.68 102.641 42.8933 102.641 43.064C102.641 43.192 102.79 43.4267 103.089 43.768C103.388 44.0667 103.814 44.216 104.369 44.216C104.924 44.216 105.628 44.0027 106.481 43.576C107.377 43.1067 108.06 42.6587 108.529 42.232L109.233 41.592C110.086 40.7387 110.513 39.3093 110.513 37.304L110.257 34.552C110.257 34.424 110.556 34.1893 111.153 33.848C111.793 33.5067 112.113 33.144 112.113 32.76C112.113 32.0773 111.665 31.416 110.769 30.776C110.257 30.6053 109.873 30.1573 109.617 29.432C109.617 29.3467 109.766 28.8987 110.065 28.088C110.961 25.656 111.409 24.12 111.409 23.48C111.409 22.7973 111.366 22.328 111.281 22.072C110.812 21.2613 110.492 19.4907 110.321 16.76C110.15 14.0293 109.873 12.3227 109.489 11.64C109.105 10.9147 108.572 10.296 107.889 9.784C107.249 9.272 106.694 8.93067 106.225 8.76L105.521 8.504C105.222 8.504 104.902 8.61066 104.561 8.824C104.22 9.03733 104.07 9.272 104.113 9.528C104.156 9.784 104.177 10.744 104.177 12.408C104.177 14.072 104.07 15.7147 103.857 17.336V17.4C103.857 17.6133 104.092 17.9973 104.561 18.552C105.073 19.064 105.329 19.4907 105.329 19.832C105.329 20.1733 105.009 20.7067 104.369 21.432C103.772 22.1147 103.473 22.6053 103.473 22.904C103.473 23.2027 103.75 23.5867 104.305 24.056C104.86 24.4827 105.137 24.7813 105.137 24.952ZM123.633 27.96L123.825 30.776C123.825 31.1173 123.761 31.3093 123.633 31.352C122.993 31.9067 122.673 33.016 122.673 34.68C122.289 37.4107 121.926 38.8613 121.585 39.032C119.836 39.3307 118.961 39.992 118.961 41.016C118.961 41.4427 119.153 41.848 119.537 42.232C119.964 42.5733 120.177 42.8293 120.177 43C120.177 43.1707 119.601 43.9173 118.449 45.24C117.34 46.52 116.188 47.5653 114.993 48.376C113.798 49.1867 112.326 50.04 110.577 50.936C108.828 51.7893 107.526 52.216 106.673 52.216C106.588 52.216 106.438 52.088 106.225 51.832C106.054 51.576 105.841 51.448 105.585 51.448C105.585 51.448 103.537 51.6187 99.441 51.96C97.2223 51.96 94.9183 51.6613 92.529 51.064L91.249 50.744C91.0357 50.6587 90.8223 50.4453 90.609 50.104C90.3957 49.7627 90.289 49.5067 90.289 49.336L90.353 49.208C91.0783 48.0987 91.441 45.8373 91.441 42.424V42.296C91.441 42.2107 91.761 41.9973 92.401 41.656C93.0837 41.272 93.425 40.7813 93.425 40.184C93.425 39.5867 93.041 38.9893 92.273 38.392C91.505 37.7947 91.121 37.432 91.121 37.304V37.24C91.5477 35.448 91.761 31.224 91.761 24.568V22.776C91.761 21.624 91.5477 20.5787 91.121 19.64V19.512L91.761 17.848C91.8463 17.592 91.889 17.1013 91.889 16.376L91.633 10.936C91.4197 9.61333 90.9717 8.44 90.289 7.416C89.6063 6.34933 89.265 5.79467 89.265 5.752C89.265 5.66666 89.3077 5.51733 89.393 5.304C89.6917 4.57867 90.0757 4.088 90.545 3.832C91.0143 3.53333 92.8063 3.02133 95.921 2.296C99.0783 1.57066 101.19 1.208 102.257 1.208C103.366 1.208 105.35 1.464 108.209 1.976C111.11 2.488 113.073 3 114.097 3.512C115.121 4.024 116.614 5.24 118.577 7.16C120.54 9.03733 121.521 10.2107 121.521 10.68C121.521 10.808 121.329 11.2133 120.945 11.896C120.561 12.536 120.369 13.0053 120.369 13.304C120.369 13.6027 120.774 14.008 121.585 14.52C122.396 14.9893 122.844 15.4373 122.929 15.864C123.356 18.2107 123.612 19.9813 123.697 21.176L123.761 22.712C123.761 23.48 123.74 24.5467 123.697 25.912L123.633 27.96ZM139.17 21.304L149.602 20.728C150.924 20.728 151.586 20.92 151.586 21.304C151.586 22.456 151.095 24.2693 150.114 26.744C149.132 29.176 148.364 30.392 147.81 30.392L146.722 29.752C145.996 29.368 145.228 29.176 144.418 29.176C141.346 29.176 139.682 29.304 139.426 29.56C139.17 29.816 139.042 31.7573 139.042 35.384C139.042 38.968 139.383 41.1013 140.066 41.784C140.748 42.4667 142.156 42.808 144.29 42.808C146.423 42.808 147.767 42.5307 148.322 41.976C148.919 41.3787 149.516 40.5893 150.114 39.608C150.754 38.6267 151.266 37.7947 151.65 37.112C152.034 36.3867 152.247 36.024 152.29 36.024C152.674 36.024 153.399 36.5573 154.466 37.624C155.575 38.6907 156.13 39.48 156.13 39.992C156.13 40.4613 155.66 42.2107 154.722 45.24C153.826 48.2267 153.186 49.912 152.802 50.296C152.759 50.3813 152.588 50.424 152.29 50.424L148.642 50.04C147.106 50.04 145.826 50.104 144.802 50.232C143.778 50.3173 143.18 50.36 143.01 50.36C142.882 50.36 142.54 50.232 141.986 49.976C141.474 49.72 141.09 49.592 140.833 49.592C140.62 49.592 140.428 49.656 140.258 49.784C140.13 49.912 140.002 50.0827 139.874 50.296C139.575 50.808 139.191 51.064 138.722 51.064L136.034 50.744C134.796 50.744 133.452 50.8933 132.002 51.192C130.594 51.4907 129.57 51.64 128.93 51.64C128.29 51.64 127.5 51.512 126.562 51.256C125.666 51.0427 125.218 50.7867 125.218 50.488C125.218 50.4027 125.324 49.976 125.538 49.208C126.22 46.8187 126.562 45.1547 126.562 44.216C126.562 43.2347 126.519 42.5947 126.434 42.296C126.434 42.2533 126.69 42.0613 127.202 41.72C127.756 41.336 128.034 40.8453 128.034 40.248C128.034 39.6507 127.65 39.1173 126.882 38.648C126.114 38.136 125.73 37.8587 125.73 37.816L126.306 35.128C126.69 33.336 126.882 32.12 126.882 31.48C126.882 30.84 126.818 30.3493 126.69 30.008C126.604 29.6667 126.562 29.4747 126.562 29.432V29.304C126.903 27.6827 127.074 25.8907 127.074 23.928C127.074 21.9227 126.988 20.0667 126.818 18.36C126.69 16.6107 126.626 15.7147 126.626 15.672C126.626 15.6293 126.839 15.4373 127.266 15.096C127.692 14.7547 127.906 14.3707 127.906 13.944C127.906 13.4747 127.692 12.8347 127.266 12.024C126.071 9.592 125.474 6.776 125.474 3.576C125.474 3.10666 126.946 2.70133 129.89 2.36C132.834 1.976 135.65 1.784 138.338 1.784C138.892 1.784 139.362 2.01866 139.746 2.488C140.13 2.95733 140.45 3.192 140.706 3.192C141.004 3.192 142.263 2.97866 144.482 2.552C146.743 2.12533 148.514 1.912 149.794 1.912C152.908 1.912 154.466 2.27466 154.466 3C154.466 4.23733 154.21 5.90133 153.698 7.992C153.186 10.04 152.802 11.192 152.546 11.448C152.119 11.96 151.052 12.216 149.346 12.216C149.175 12.216 148.94 11.9173 148.642 11.32C148.386 10.68 147.874 10.0613 147.106 9.464C146.38 8.824 145.57 8.504 144.674 8.504C143.778 8.504 142.818 8.696 141.794 9.08C140.77 9.42133 140.13 9.72 139.874 9.976C139.618 10.232 139.49 11.32 139.49 13.24C139.49 15.1173 139.596 16.5253 139.81 17.464V17.656C139.81 17.9547 139.383 18.232 138.53 18.488C137.676 18.744 137.25 19.576 137.25 20.984C137.25 21.1973 137.89 21.304 139.17 21.304ZM181.782 20.92C181.782 21.4747 182.144 22.1147 182.87 22.84C182.87 23.3947 182.336 24.0347 181.27 24.76C180.203 25.4853 179.67 26.0827 179.67 26.552C175.702 34.5733 173.718 39.7147 173.718 41.976C174.016 42.5733 174.699 42.872 175.766 42.872C177.814 42.8293 179.328 42.4453 180.31 41.72C181.12 41.0373 182.08 39.5867 183.19 37.368C184.342 35.1067 184.939 33.976 184.982 33.976C185.536 33.976 186.518 34.4667 187.926 35.448C189.334 36.4293 190.038 37.1547 190.038 37.624C189.568 40.6107 189.014 43.128 188.374 45.176C188.8 45.6027 189.014 45.88 189.014 46.008C189.014 46.264 188.48 47.672 187.414 50.232L186.838 51.512C186.198 52.152 183.787 52.472 179.606 52.472H179.414C179.328 52.216 179.051 51.8747 178.582 51.448C178.112 51.0213 177.728 50.808 177.43 50.808C176.79 50.808 175.723 51.192 174.23 51.96L173.526 52.344C173.44 52.3867 173.206 52.408 172.822 52.408C171.968 52.408 170.518 52.1947 168.47 51.768L167.446 51.512C166.848 51.512 165.44 51.7253 163.222 52.152C161.046 52.6213 159.808 52.856 159.51 52.856H159.382C158.656 52.472 158.038 51.7467 157.526 50.68C157.014 49.5707 156.758 48.8453 156.758 48.504C156.758 48.1627 157.654 45.9227 159.446 41.784C161.28 37.6027 162.262 35.0427 162.39 34.104C162.39 33.8907 162.624 33.656 163.094 33.4C163.606 33.144 164.096 32.952 164.566 32.824L165.27 32.632L166.102 31.224C166.102 30.7547 165.547 30.136 164.438 29.368C164.438 28.5573 165.824 25.6133 168.598 20.536L169.942 18.04C170.582 18.04 170.987 17.8907 171.158 17.592C171.456 17.08 171.798 16.0773 172.182 14.584L172.31 13.88C172.48 13.752 173.12 13.5813 174.23 13.368C175.339 13.112 175.894 12.92 175.894 12.792C175.894 11.5973 174.912 11 172.95 11H172.758C171.862 11 170.582 11.1493 168.918 11.448L168.214 11.576C167.488 12.0027 166.678 12.7493 165.782 13.816C164.886 14.8827 164.182 15.8427 163.67 16.696L162.902 18.04C162.39 18.04 161.536 17.5067 160.342 16.44C159.19 15.3307 158.614 14.5627 158.614 14.136C158.614 13.6667 159.019 12.0453 159.83 9.272C160.683 6.49867 161.323 4.89867 161.75 4.472C163.67 4.30133 164.758 4.19467 165.014 4.152C165.27 4.10933 165.867 3.72533 166.806 3C169.494 2.82933 171.456 2.744 172.694 2.744C173.974 2.744 174.742 2.78667 174.998 2.872C177.643 3.72533 179.35 4.152 180.118 4.152C181.27 3.08533 181.995 2.552 182.294 2.552C186.688 2.85066 189.056 3.17066 189.398 3.512C190.55 4.536 191.126 5.15466 191.126 5.368V5.432C189.419 7.39467 188.224 9.03733 187.542 10.36C187.542 10.4027 187.542 10.4453 187.542 10.488L187.926 11.32C185.622 15.2027 184.384 17.6987 184.214 18.808C182.592 19.448 181.782 20.152 181.782 20.92ZM206.35 38.008C206.264 38.8187 206.222 40.2267 206.222 42.232C206.222 44.2373 206.798 46.392 207.95 48.696C207.95 48.9093 207.694 49.1867 207.182 49.528C206.712 49.8693 206.371 50.1253 206.158 50.296C205.944 50.424 205.646 50.6373 205.262 50.936C204.92 51.2347 204.643 51.4693 204.43 51.64C203.832 52.1093 203.406 52.344 203.15 52.344C201.912 52.344 199.864 52.1093 197.006 51.64C194.19 51.1707 192.782 50.7013 192.782 50.232C192.782 49.976 192.888 48.9093 193.102 47.032C193.315 45.1547 193.443 44.1093 193.486 43.896L193.934 43C194.318 38.776 194.51 36.0027 194.51 34.68C194.51 33.3573 194.446 31.7147 194.318 29.752C194.232 27.7893 194.126 26.2533 193.998 25.144C193.912 23.992 193.87 23.3947 193.87 23.352C193.87 23.2667 194.04 23.1173 194.382 22.904C195.32 22.264 195.79 21.5813 195.79 20.856C195.79 20.1307 195.427 19.5973 194.702 19.256C194.019 18.872 193.678 18.616 193.678 18.488C193.678 18.0613 193.784 17.08 193.998 15.544C194.211 13.9653 194.318 12.7493 194.318 11.896C194.318 11.0427 194.04 9.848 193.486 8.312C192.974 6.776 192.718 5.90133 192.718 5.688C192.718 5.34667 193.699 4.57867 195.661 3.384C197.667 2.14666 199.075 1.528 199.885 1.528C200.739 1.528 202.126 1.80533 204.046 2.36C205.966 2.872 206.926 3.448 206.926 4.088C206.926 4.55733 206.691 5.73066 206.222 7.608C205.752 9.48533 205.518 10.552 205.518 10.808C205.518 11.064 205.646 11.2987 205.902 11.512C206.2 11.6827 206.35 11.896 206.35 12.152C205.88 17.016 205.646 20.3013 205.646 22.008C205.646 23.672 205.667 24.6533 205.71 24.952C205.752 25.208 205.88 25.5067 206.094 25.848C206.307 26.1893 206.414 26.5307 206.414 26.872C206.414 26.9147 206.072 27.2133 205.39 27.768C204.75 28.3227 204.43 28.8133 204.43 29.24C204.43 29.6667 204.792 30.1787 205.518 30.776C206.243 31.3733 206.606 31.992 206.606 32.632C206.478 33.4853 206.392 33.9547 206.35 34.04C206.35 34.0827 206.03 34.3387 205.39 34.808C204.75 35.2347 204.43 35.5333 204.43 35.704V36.152C204.43 36.7067 204.856 37.1333 205.71 37.432C206.136 37.6027 206.35 37.7947 206.35 38.008ZM239.665 42.488L239.857 43.704C239.857 44.3013 239.494 45.4107 238.769 47.032C238.086 48.6107 237.681 49.4853 237.553 49.656C237.084 50.0827 235.996 50.296 234.289 50.296C231.046 50.296 228.081 50.1253 225.393 49.784L223.921 49.592C223.196 49.592 222.577 49.848 222.065 50.36C221.553 50.8293 220.785 51.064 219.761 51.064L214.001 50.68C211.868 50.68 210.801 50.424 210.801 49.912V49.784C211.014 49.0587 211.121 47.9067 211.121 46.328L210.801 40.952V40.888C210.801 40.6747 211.206 40.2693 212.017 39.672C212.828 39.0747 213.233 38.5413 213.233 38.072C213.233 37.6027 213.041 37.1547 212.657 36.728C212.273 36.3013 211.676 35.96 210.865 35.704C210.78 35.448 210.737 35.192 210.737 34.936L211.121 32.376C211.206 31.7787 211.249 31.224 211.249 30.712L210.673 20.472C210.673 20.344 210.844 20.152 211.185 19.896C211.825 19.4267 212.145 19.0213 212.145 18.68L211.825 17.272C211.569 17.016 211.249 16.8027 210.865 16.632C210.225 16.4187 209.905 16.2053 209.905 15.992C209.905 15.736 210.14 15.0107 210.609 13.816C211.121 12.6213 211.377 11.8747 211.377 11.576L210.289 5.944C210.289 5.60266 211.206 4.77067 213.041 3.448C214.876 2.08266 216.39 1.4 217.585 1.4C218.822 1.4 220.38 1.54933 222.257 1.848C224.177 2.14666 225.137 2.44533 225.137 2.744C225.137 3.256 224.966 4.62133 224.625 6.84C224.326 9.016 224.07 10.168 223.857 10.296C222.833 10.808 222.321 11.3627 222.321 11.96C222.321 12.5147 222.641 13.0907 223.281 13.688C223.964 14.2427 224.305 14.6053 224.305 14.776V14.84C223.964 19.576 223.793 22.84 223.793 24.632C223.793 26.3813 223.814 27.4053 223.857 27.704C223.942 27.96 224.156 28.28 224.497 28.664C224.881 29.048 225.073 29.3467 225.073 29.56C225.073 29.7733 224.838 30.2213 224.369 30.904C223.942 31.544 223.729 32.1413 223.729 32.696C223.857 34.0187 223.921 35.064 223.921 35.832C223.921 36.5573 223.878 36.9627 223.793 37.048C222.3 38.5413 221.553 39.8213 221.553 40.888C221.553 41.1013 221.66 41.4 221.873 41.784C222.086 42.168 222.257 42.36 222.385 42.36C222.556 42.36 223.046 42.0613 223.857 41.464C224.668 40.824 225.286 40.504 225.713 40.504H225.905C227.356 40.8027 228.721 40.952 230.001 40.952C231.281 40.952 232.113 40.76 232.497 40.376C233.948 38.9253 235.1 37.2187 235.953 35.256C236.166 34.744 236.337 34.488 236.465 34.488C237.66 34.488 238.748 35 239.729 36.024C240.753 37.048 241.265 37.9013 241.265 38.584C241.009 39.9067 240.668 40.824 240.241 41.336C239.857 41.8053 239.665 42.1893 239.665 42.488ZM271.665 42.488L271.857 43.704C271.857 44.3013 271.494 45.4107 270.769 47.032C270.086 48.6107 269.681 49.4853 269.553 49.656C269.084 50.0827 267.996 50.296 266.289 50.296C263.046 50.296 260.081 50.1253 257.393 49.784L255.921 49.592C255.196 49.592 254.577 49.848 254.065 50.36C253.553 50.8293 252.785 51.064 251.761 51.064L246.001 50.68C243.868 50.68 242.801 50.424 242.801 49.912V49.784C243.014 49.0587 243.121 47.9067 243.121 46.328L242.801 40.952V40.888C242.801 40.6747 243.206 40.2693 244.017 39.672C244.828 39.0747 245.233 38.5413 245.233 38.072C245.233 37.6027 245.041 37.1547 244.657 36.728C244.273 36.3013 243.676 35.96 242.865 35.704C242.78 35.448 242.737 35.192 242.737 34.936L243.121 32.376C243.206 31.7787 243.249 31.224 243.249 30.712L242.673 20.472C242.673 20.344 242.844 20.152 243.185 19.896C243.825 19.4267 244.145 19.0213 244.145 18.68L243.825 17.272C243.569 17.016 243.249 16.8027 242.865 16.632C242.225 16.4187 241.905 16.2053 241.905 15.992C241.905 15.736 242.14 15.0107 242.609 13.816C243.121 12.6213 243.377 11.8747 243.377 11.576L242.289 5.944C242.289 5.60266 243.206 4.77067 245.041 3.448C246.876 2.08266 248.39 1.4 249.585 1.4C250.822 1.4 252.38 1.54933 254.257 1.848C256.177 2.14666 257.137 2.44533 257.137 2.744C257.137 3.256 256.966 4.62133 256.625 6.84C256.326 9.016 256.07 10.168 255.857 10.296C254.833 10.808 254.321 11.3627 254.321 11.96C254.321 12.5147 254.641 13.0907 255.281 13.688C255.964 14.2427 256.305 14.6053 256.305 14.776V14.84C255.964 19.576 255.793 22.84 255.793 24.632C255.793 26.3813 255.814 27.4053 255.857 27.704C255.942 27.96 256.156 28.28 256.497 28.664C256.881 29.048 257.073 29.3467 257.073 29.56C257.073 29.7733 256.838 30.2213 256.369 30.904C255.942 31.544 255.729 32.1413 255.729 32.696C255.857 34.0187 255.921 35.064 255.921 35.832C255.921 36.5573 255.878 36.9627 255.793 37.048C254.3 38.5413 253.553 39.8213 253.553 40.888C253.553 41.1013 253.66 41.4 253.873 41.784C254.086 42.168 254.257 42.36 254.385 42.36C254.556 42.36 255.046 42.0613 255.857 41.464C256.668 40.824 257.286 40.504 257.713 40.504H257.905C259.356 40.8027 260.721 40.952 262.001 40.952C263.281 40.952 264.113 40.76 264.497 40.376C265.948 38.9253 267.1 37.2187 267.953 35.256C268.166 34.744 268.337 34.488 268.465 34.488C269.66 34.488 270.748 35 271.729 36.024C272.753 37.048 273.265 37.9013 273.265 38.584C273.009 39.9067 272.668 40.824 272.241 41.336C271.857 41.8053 271.665 42.1893 271.665 42.488ZM293.391 25.528C293.348 25.4427 293.327 25.3787 293.327 25.336C292.772 23.5867 292.495 20.856 292.495 17.144V16.888C292.495 15.992 292.303 15.544 291.919 15.544C290.212 15.544 289.359 16.0347 289.359 17.016L289.615 19.96C289.615 20.216 289.338 21.0267 288.783 22.392C288.228 23.7573 287.951 24.8453 287.951 25.656C287.951 26.4667 288.058 26.872 288.271 26.872C288.655 26.872 289.231 26.744 289.999 26.488C290.767 26.1893 291.514 26.04 292.239 26.04C293.007 26.04 293.391 25.8693 293.391 25.528ZM281.231 11.96L280.399 8.248C280.399 7.864 282.02 6.79733 285.263 5.048C288.548 3.256 290.49 2.296 291.087 2.168C291.684 2.04 292.772 1.976 294.351 1.976C295.93 1.976 297.402 2.12533 298.767 2.424C301.668 3.064 303.119 3.68267 303.119 4.28C303.119 4.32266 303.012 4.87733 302.799 5.944C302.116 9.272 301.775 11.9173 301.775 13.88C301.775 14.0933 301.988 14.264 302.415 14.392C302.842 14.4773 303.055 14.5413 303.055 14.584C303.055 15.9493 303.46 20.088 304.271 27C305.124 33.8693 305.85 38.2 306.447 39.992V40.056C306.447 40.1413 306.106 40.4187 305.423 40.888C304.783 41.3573 304.463 41.8693 304.463 42.424C304.463 42.9787 304.783 43.3627 305.423 43.576C306.106 43.7893 306.767 43.96 307.407 44.088C308.047 44.1733 308.367 44.3867 308.367 44.728C308.324 44.8133 308.303 44.9627 308.303 45.176C308.303 45.3893 308.367 45.7733 308.495 46.328C308.623 47.1813 309.135 48.312 310.031 49.72L310.415 50.36C310.415 51.0853 309.199 51.8533 306.767 52.664C304.378 53.5173 302.586 53.944 301.391 53.944C300.239 53.944 299.087 53.7093 297.935 53.24C296.826 52.8133 295.908 52.344 295.183 51.832C294.5 51.32 294.159 50.9573 294.159 50.744C294.159 50.7013 294.202 50.4667 294.287 50.04C294.5 48.9733 294.607 47.8213 294.607 46.584L293.199 37.816C293.199 37.6453 293.583 37.496 294.351 37.368C295.119 37.24 295.503 36.9627 295.503 36.536C295.503 35.9813 295.183 35.512 294.543 35.128C293.903 34.744 293.114 34.552 292.175 34.552C291.279 34.552 290.191 34.7867 288.911 35.256C287.674 35.7253 286.948 36.1733 286.735 36.6C286.564 36.984 286.266 38.8827 285.839 42.296C285.412 45.6667 285.199 48.184 285.199 49.848C285.199 50.1893 284.068 50.6587 281.807 51.256C279.546 51.8533 277.668 52.152 276.175 52.152C275.407 52.152 274.148 51.5973 272.399 50.488L271.567 49.976C271.439 49.848 271.375 49.656 271.375 49.4V49.272C272.015 48.4613 272.783 46.7333 273.679 44.088L274.191 42.68C274.746 42.68 275.386 42.36 276.111 41.72C276.879 41.0373 277.263 40.568 277.263 40.312C277.263 40.0133 277.028 39.5653 276.559 38.968C276.09 38.328 275.855 37.944 275.855 37.816V37.752L278.223 31.864C278.223 30.9253 278.714 27.6187 279.695 21.944C280.719 16.2693 281.231 12.9413 281.231 11.96Z" fill="black"/>
</svg>
