<svg width="384" height="54" viewBox="0 0 384 54" fill="none" xmlns="http://www.w3.org/2000/svg">
<path d="M32.92 12.408L33.048 16.248C33.048 16.3333 32.7493 16.632 32.152 17.144C31.5973 17.6133 31.32 18.04 31.32 18.424C31.32 18.808 31.5547 19.2133 32.024 19.64C32.4933 20.0667 32.92 20.28 33.304 20.28C33.4747 20.28 33.56 20.7707 33.56 21.752C33.56 22.6907 33.5173 23.2667 33.432 23.48C33.3467 23.6507 33.2187 23.8853 33.048 24.184L32.792 24.76V25.656C32.792 33.08 32.984 37.3253 33.368 38.392V38.456C33.368 38.5413 33.0693 38.8827 32.472 39.48C31.9173 40.0773 31.64 40.6107 31.64 41.08C31.64 41.5067 31.8107 41.8053 32.152 41.976C32.4933 42.1467 32.8347 42.2533 33.176 42.296C33.56 42.3387 33.752 42.3813 33.752 42.424C33.752 42.936 34.0293 43.7467 34.584 44.856C35.1387 45.9653 35.5227 46.648 35.736 46.904C35.992 47.16 36.12 47.3307 36.12 47.416C36.12 48.0133 34.9893 48.9947 32.728 50.36C30.4667 51.7253 28.824 52.408 27.8 52.408C26.8187 52.408 25.4533 51.8747 23.704 50.808C21.9973 49.7413 21.0587 49.08 20.888 48.824C20.632 48.44 20.4613 46.8187 20.376 43.96V42.488L21.528 41.784C22.2533 41.272 22.616 40.7173 22.616 40.12C22.616 39.5227 22.2533 39.1387 21.528 38.968C20.8027 38.7973 20.44 38.6907 20.44 38.648C20.44 38.5627 20.5467 38.0293 20.76 37.048C20.9733 36.0667 21.08 34.7013 21.08 32.952C21.08 31.2027 20.9307 30.1787 20.632 29.88C20.4187 29.752 20.2053 29.688 19.992 29.688C17.7307 29.688 15.896 30.136 14.488 31.032C13.08 31.8853 12.376 32.76 12.376 33.656C12.376 34.168 12.824 34.424 13.72 34.424L14.616 34.296C14.744 34.3387 14.808 34.4667 14.808 34.68L14.488 41.144C14.488 43.3627 14.616 45.0267 14.872 46.136C15.1707 47.2453 15.32 48.0773 15.32 48.632C15.32 49.1867 15.2773 49.5067 15.192 49.592C15.1493 49.6773 14.7227 49.9973 13.912 50.552C13.1013 51.064 12.0773 51.5973 10.84 52.152C9.64533 52.7493 8.62133 53.048 7.768 53.048C6.91467 53.048 5.44267 52.6853 3.352 51.96C1.304 51.2347 0.28 50.616 0.28 50.104L0.344 49.976C1.96533 47.288 2.776 41.4 2.776 32.312L2.456 25.912C1.77333 25.2293 1.432 24.2693 1.432 23.032V22.776C1.432 22.7333 1.752 22.456 2.392 21.944C3.07467 21.432 3.416 20.984 3.416 20.6C3.416 20.216 3.288 19.896 3.032 19.64C2.776 19.384 2.52 19.1707 2.264 19C2.05067 18.8293 1.944 18.7013 1.944 18.616C2.11467 17.976 2.2 16.696 2.2 14.776C2.2 12.8133 1.85867 10.296 1.176 7.224C1.176 7.18133 1.15467 7.096 1.112 6.968V6.904C1.112 6.43466 2.392 5.47466 4.952 4.024C7.512 2.57333 9.13333 1.848 9.816 1.848C10.4987 1.848 11.5867 2.104 13.08 2.616C14.616 3.08533 15.384 3.46933 15.384 3.768C15.384 4.024 15.2347 5.21866 14.936 7.352C14.68 9.44267 14.5307 10.5733 14.488 10.744L14.04 11.768C14.04 12.152 14.2747 12.6853 14.744 13.368C15.2133 14.0507 15.448 14.52 15.448 14.776C15.448 15.032 15.384 15.288 15.256 15.544C14.744 16.4827 14.4667 17.3573 14.424 18.168C14.424 18.9787 14.424 19.8107 14.424 20.664C14.424 21.5173 14.4667 22.008 14.552 22.136C14.68 22.2213 15.128 22.264 15.896 22.264C17.9867 22.264 19.4373 21.88 20.248 21.112C20.9733 20.3013 21.336 17.8693 21.336 13.816C21.336 9.72 21.144 6.94666 20.76 5.496V5.432C20.76 4.96266 21.7627 4.06666 23.768 2.744C25.7733 1.37867 27.2453 0.695999 28.184 0.695999C29.1653 0.695999 30.4453 0.994666 32.024 1.592C33.6453 2.14666 34.456 2.65866 34.456 3.128V3.192C33.432 5.58133 32.92 8.65333 32.92 12.408ZM51.497 13.56L52.521 16.504C52.521 16.5893 52.201 17.016 51.561 17.784C50.921 18.552 50.601 19.128 50.601 19.512C50.601 19.8533 50.8783 20.2587 51.433 20.728C52.0303 21.1973 52.329 21.56 52.329 21.816C51.3477 26.5947 50.857 30.0507 50.857 32.184C50.857 32.6533 51.369 33.4 52.393 34.424C52.4783 34.5093 52.521 34.68 52.521 34.936C52.521 35.1493 52.3077 35.7253 51.881 36.664C51.497 37.56 51.305 38.0933 51.305 38.264C51.305 39.416 51.817 40.5893 52.841 41.784C53.865 42.9787 54.825 43.576 55.721 43.576C56.2757 43.576 56.745 43.3627 57.129 42.936C57.5557 42.4667 57.9397 42.0187 58.281 41.592L58.857 40.952C58.8997 40.9093 58.921 40.8453 58.921 40.76C58.921 40.6747 58.665 40.248 58.153 39.48C57.6837 38.6693 57.449 38.1147 57.449 37.816C57.449 37.5173 57.6623 36.7067 58.089 35.384C58.5583 34.0187 58.793 33.0373 58.793 32.44L57.769 31.416C57.7263 31.3733 57.705 31.2453 57.705 31.032V30.904C57.705 30.1787 57.5557 29.6667 57.257 29.368L57.193 29.176C57.2783 28.7493 57.7903 27.9813 58.729 26.872C58.9423 26.6587 59.049 25.784 59.049 24.248L58.729 18.04C58.729 17.656 58.3877 17.208 57.705 16.696C57.065 16.184 56.745 15.864 56.745 15.736C56.745 14.6267 57.0437 13.368 57.641 11.96L57.961 11.256C57.961 10.744 57.385 10.168 56.233 9.528L55.657 9.208C54.9317 9.208 54.057 9.74133 53.033 10.808C52.009 11.832 51.497 12.7493 51.497 13.56ZM69.673 36.472C69.673 37.3253 70.0997 38.136 70.953 38.904C70.953 39.8427 70.633 41.0373 69.993 42.488C69.353 43.896 68.6703 45.0907 67.945 46.072C67.2623 47.0533 66.8143 47.544 66.601 47.544C65.6197 47.544 64.4677 47.8213 63.145 48.376C61.865 48.9307 60.8197 49.4853 60.009 50.04L58.793 50.872C58.3663 51.256 56.4037 51.64 52.905 52.024L51.177 52.216C49.385 52.216 47.529 51.4693 45.609 49.976C43.689 48.44 42.217 46.968 41.193 45.56C40.2117 44.152 39.721 43.3627 39.721 43.192C39.721 43.0213 39.8063 42.6587 39.977 42.104C40.1903 41.5493 40.297 41.016 40.297 40.504C40.297 39.48 39.6357 38.968 38.313 38.968L37.801 39.032C37.4597 39.032 37.033 36.7493 36.521 32.184L36.265 29.944L37.033 21.24C37.033 21.112 37.289 20.6853 37.801 19.96C38.313 19.2347 38.569 18.7867 38.569 18.616L38.441 13.112C38.441 11.448 38.505 10.5307 38.633 10.36C39.1877 9.592 40.9583 8.09866 43.945 5.88C46.9317 3.66133 49.1717 2.552 50.665 2.552C50.9637 1.82666 51.2837 1.464 51.625 1.464C53.7583 1.336 56.233 1.272 59.049 1.272C61.9077 1.272 63.5717 1.50667 64.041 1.976C64.0837 2.01866 64.5743 2.46666 65.513 3.32C66.4517 4.17333 67.241 4.92 67.881 5.56C68.521 6.2 69.1397 6.98933 69.737 7.928C70.377 8.86666 70.697 9.656 70.697 10.296L69.417 11.896C69.8863 12.8773 70.5477 14.9467 71.401 18.104C72.297 21.2187 72.745 23.4587 72.745 24.824C72.5743 31.48 72.2543 34.808 71.785 34.808C70.377 35.3627 69.673 35.9173 69.673 36.472ZM126.943 35.768L127.519 37.304V37.368C125.727 39.288 124.81 40.312 124.767 40.44V40.76C124.767 41.528 125.023 42.168 125.535 42.68C125.62 42.7653 125.663 43.064 125.663 43.576C125.663 44.0453 125.407 45.112 124.895 46.776C124.426 48.3973 124.084 49.208 123.871 49.208C123.146 49.208 122.271 49.4853 121.247 50.04C120.223 50.5947 119.54 51.0427 119.199 51.384C118.602 51.9813 117.919 52.472 117.151 52.856C113.652 52.856 111.178 52.6 109.727 52.088L108.959 51.832C108.276 51.4907 107.252 50.68 105.887 49.4C104.564 48.12 103.903 47.1813 103.903 46.584L105.887 44.92C105.887 44.4933 105.631 44.024 105.119 43.512H104.927C104.586 43.512 104.138 43.32 103.583 42.936C103.583 41.784 103.455 39.5867 103.199 36.344C102.943 33.1013 102.708 31.2453 102.495 30.776C102.495 30.6907 102.431 30.648 102.303 30.648C102.004 30.648 101.578 30.9253 101.023 31.48C100.81 31.8213 100.511 33.8693 100.127 37.624L99.935 39.48C98.911 40.504 98.399 41.3147 98.399 41.912L98.975 42.552C99.4017 42.9787 99.615 43.32 99.615 43.576C99.615 43.9173 99.1883 44.5573 98.335 45.496C98.207 45.624 98.1217 46.136 98.079 47.032C98.079 47.8853 98.0577 48.7173 98.015 49.528C98.015 50.296 97.9297 50.68 97.759 50.68C97.0337 50.68 95.8177 51.1493 94.111 52.088C92.447 53.0267 90.8257 53.496 89.247 53.496C88.735 53.496 87.1137 53.0907 84.383 52.28C81.6523 51.512 80.287 50.8507 80.287 50.296L79.519 42.424C79.519 42.3387 79.2843 42.1467 78.815 41.848C78.3883 41.5493 78.175 41.272 78.175 41.016C78.175 40.7173 78.6017 39.928 79.455 38.648C79.455 37.88 78.7937 37.048 77.471 36.152C77.5563 35.896 77.599 35.2347 77.599 34.168L77.471 29.496C77.215 28.984 76.7883 27.0213 76.191 23.608L75.935 21.944C76.6603 21.4747 77.023 20.728 77.023 19.704V19.576C77.023 19.32 76.6177 19 75.807 18.616C74.9963 18.232 74.591 17.9333 74.591 17.72L75.551 15.032L73.695 6.712C73.695 6.49866 74.1857 6.008 75.167 5.24C76.1483 4.472 77.343 3.72533 78.751 3C80.2017 2.232 81.3963 1.848 82.335 1.848C82.5057 1.848 83.5723 2.08267 85.535 2.552C87.4977 2.97866 88.479 3.27733 88.479 3.448C88.4363 5.45333 88.415 7.20266 88.415 8.696C88.415 10.1467 88.4363 10.9787 88.479 11.192C87.1563 11.832 86.495 12.4933 86.495 13.176C86.495 13.4747 87.1137 13.88 88.351 14.392L88.927 14.648C89.0123 22.712 89.2043 27.448 89.503 28.856C89.3323 29.3253 89.0763 29.752 88.735 30.136C89.247 34.4027 89.6097 36.664 89.823 36.92C90.5057 37.5173 90.9537 37.816 91.167 37.816C91.3803 37.816 91.5297 37.7733 91.615 37.688C92.5963 34.1893 93.087 31.5227 93.087 29.688C93.6843 29.2613 94.0043 28.8987 94.047 28.6C94.559 24.76 94.815 22.4347 94.815 21.624V21.368C94.175 20.6 93.855 19.896 93.855 19.256C95.0497 17.5493 95.711 16.4187 95.839 15.864C96.0097 15.2667 96.1377 14.4347 96.223 13.368C96.4363 10.424 96.607 8.93067 96.735 8.888C99.9777 6.2 102.26 4.856 103.583 4.856H103.775C104.756 4.984 105.93 5.32533 107.295 5.88C108.703 6.43466 110.239 6.712 111.903 6.712H112.095C112.479 6.62667 112.671 8.73867 112.671 13.048C112.671 14.1147 112.65 14.6693 112.607 14.712C111.796 15.6933 111.391 16.5253 111.391 17.208C111.391 17.848 112.031 18.2107 113.311 18.296C114.036 22.6053 114.399 25.976 114.399 28.408C113.674 28.8773 113.311 29.3253 113.311 29.752C113.311 30.136 113.567 30.6267 114.079 31.224C114.207 33.912 114.442 35.4267 114.783 35.768C115.636 36.3653 116.148 36.664 116.319 36.664C116.532 36.664 116.682 36.6 116.767 36.472C116.852 36.344 116.959 35.6613 117.087 34.424C117.215 33.1867 117.322 32.5253 117.407 32.44C117.876 31.928 118.132 31.5653 118.175 31.352C118.602 25.8907 118.879 22.9467 119.007 22.52C120.074 21.7093 120.607 21.1547 120.607 20.856V20.792C120.607 20.2373 120.18 19.6613 119.327 19.064C119.839 15.5227 120.244 13.048 120.543 11.64C120.244 9.592 120.095 8.12 120.095 7.224C120.095 6.328 120.159 5.816 120.287 5.688C122.634 3.93867 124.511 2.82933 125.919 2.36C128.223 2.104 129.908 1.976 130.975 1.976H131.295C133.13 2.44533 134.047 2.91466 134.047 3.384V3.448C131.999 7.928 130.975 10.488 130.975 11.128C129.268 12.0667 128.415 12.8773 128.415 13.56C128.415 13.816 128.564 14.008 128.863 14.136C129.204 14.2213 129.46 14.3067 129.631 14.392L130.079 14.648C130.207 14.6907 130.25 14.7333 130.207 14.776C129.61 17.336 129.268 19.1707 129.183 20.28C129.14 21.3893 128.991 22.52 128.735 23.672C128.479 24.7813 128.244 25.6987 128.031 26.424C127.818 27.1493 127.583 28.5147 127.327 30.52C127.071 32.4827 126.943 34.232 126.943 35.768ZM174.277 2.872L182.021 2.36C182.362 2.36 182.554 2.38133 182.597 2.424C182.853 2.68 183.301 4.28 183.941 7.224C184.624 10.1253 184.965 12.408 184.965 14.072C184.965 14.4133 184.325 15.032 183.045 15.928C181.808 16.7813 180.784 17.208 179.973 17.208C179.888 17.208 179.738 16.8667 179.525 16.184C178.8 13.8373 177.84 12.0667 176.645 10.872C175.109 10.3173 173.978 10.04 173.253 10.04C172.528 10.04 172.08 10.0827 171.909 10.168C171.781 10.2107 171.568 10.36 171.269 10.616C171.013 10.872 170.885 11.2133 170.885 11.64C172.848 12.536 173.829 13.1333 173.829 13.432C173.616 16.2053 173.509 18.936 173.509 21.624C172.485 22.4773 171.973 23.032 171.973 23.288C171.973 23.8427 172.144 24.2907 172.485 24.632C172.826 24.9733 173.168 25.208 173.509 25.336C173.85 25.464 174.021 25.5493 174.021 25.592C173.765 30.2 173.637 34.0613 173.637 37.176C173.637 40.248 173.722 42.296 173.893 43.32C174.874 45.752 175.365 47.5013 175.365 48.568C175.365 48.9093 174.853 49.3147 173.829 49.784C172.848 50.2533 172.037 50.5733 171.397 50.744C170.33 51 169.392 51.5333 168.581 52.344C166.277 52.344 164.357 52.2373 162.821 52.024C161.328 51.8107 160.389 51.5973 160.005 51.384L159.493 51.064L160.581 47.16C160.666 47.032 160.709 46.3707 160.709 45.176L160.645 40.312C160.645 39.6293 160.666 39.288 160.709 39.288C161.221 39.288 161.733 38.7333 162.245 37.624C162.245 37.4107 161.861 36.92 161.093 36.152C160.368 35.384 160.005 34.9147 160.005 34.744L160.965 32.888C161.05 32.5467 161.093 32.0773 161.093 31.48L160.901 25.528C160.901 24.76 160.965 24.312 161.093 24.184C161.221 24.056 161.285 23.9067 161.285 23.736C161.285 23.5227 161.05 23.1813 160.581 22.712C160.112 22.2 159.877 21.752 159.877 21.368L160.901 19.064C161.072 18.552 161.157 16.9093 161.157 14.136C161.157 11.3627 161.114 9.976 161.029 9.976C159.834 9.976 158.704 10.6587 157.637 12.024C156.57 13.3467 155.802 14.6907 155.333 16.056L154.629 18.104C153.776 18.104 152.901 17.8693 152.005 17.4C151.109 16.9307 150.426 16.4613 149.957 15.992C149.488 15.48 149.253 15.1173 149.253 14.904C149.253 14.648 149.68 12.5147 150.533 8.504C151.429 4.45066 151.984 2.40266 152.197 2.36C154.202 2.57333 155.482 2.76533 156.037 2.936C161.37 2.424 164.4 2.168 165.125 2.168L167.941 2.488C169.648 1.80533 170.608 1.464 170.821 1.464C171.504 1.76266 172.016 2.08266 172.357 2.424C172.698 2.72266 173.338 2.872 174.277 2.872ZM198.997 13.56L200.021 16.504C200.021 16.5893 199.701 17.016 199.061 17.784C198.421 18.552 198.101 19.128 198.101 19.512C198.101 19.8533 198.378 20.2587 198.933 20.728C199.53 21.1973 199.829 21.56 199.829 21.816C198.848 26.5947 198.357 30.0507 198.357 32.184C198.357 32.6533 198.869 33.4 199.893 34.424C199.978 34.5093 200.021 34.68 200.021 34.936C200.021 35.1493 199.808 35.7253 199.381 36.664C198.997 37.56 198.805 38.0933 198.805 38.264C198.805 39.416 199.317 40.5893 200.341 41.784C201.365 42.9787 202.325 43.576 203.221 43.576C203.776 43.576 204.245 43.3627 204.629 42.936C205.056 42.4667 205.44 42.0187 205.781 41.592L206.357 40.952C206.4 40.9093 206.421 40.8453 206.421 40.76C206.421 40.6747 206.165 40.248 205.653 39.48C205.184 38.6693 204.949 38.1147 204.949 37.816C204.949 37.5173 205.162 36.7067 205.589 35.384C206.058 34.0187 206.293 33.0373 206.293 32.44L205.269 31.416C205.226 31.3733 205.205 31.2453 205.205 31.032V30.904C205.205 30.1787 205.056 29.6667 204.757 29.368L204.693 29.176C204.778 28.7493 205.29 27.9813 206.229 26.872C206.442 26.6587 206.549 25.784 206.549 24.248L206.229 18.04C206.229 17.656 205.888 17.208 205.205 16.696C204.565 16.184 204.245 15.864 204.245 15.736C204.245 14.6267 204.544 13.368 205.141 11.96L205.461 11.256C205.461 10.744 204.885 10.168 203.733 9.528L203.157 9.208C202.432 9.208 201.557 9.74133 200.533 10.808C199.509 11.832 198.997 12.7493 198.997 13.56ZM217.173 36.472C217.173 37.3253 217.6 38.136 218.453 38.904C218.453 39.8427 218.133 41.0373 217.493 42.488C216.853 43.896 216.17 45.0907 215.445 46.072C214.762 47.0533 214.314 47.544 214.101 47.544C213.12 47.544 211.968 47.8213 210.645 48.376C209.365 48.9307 208.32 49.4853 207.509 50.04L206.293 50.872C205.866 51.256 203.904 51.64 200.405 52.024L198.677 52.216C196.885 52.216 195.029 51.4693 193.109 49.976C191.189 48.44 189.717 46.968 188.693 45.56C187.712 44.152 187.221 43.3627 187.221 43.192C187.221 43.0213 187.306 42.6587 187.477 42.104C187.69 41.5493 187.797 41.016 187.797 40.504C187.797 39.48 187.136 38.968 185.813 38.968L185.301 39.032C184.96 39.032 184.533 36.7493 184.021 32.184L183.765 29.944L184.533 21.24C184.533 21.112 184.789 20.6853 185.301 19.96C185.813 19.2347 186.069 18.7867 186.069 18.616L185.941 13.112C185.941 11.448 186.005 10.5307 186.133 10.36C186.688 9.592 188.458 8.09866 191.445 5.88C194.432 3.66133 196.672 2.552 198.165 2.552C198.464 1.82666 198.784 1.464 199.125 1.464C201.258 1.336 203.733 1.272 206.549 1.272C209.408 1.272 211.072 1.50667 211.541 1.976C211.584 2.01866 212.074 2.46666 213.013 3.32C213.952 4.17333 214.741 4.92 215.381 5.56C216.021 6.2 216.64 6.98933 217.237 7.928C217.877 8.86666 218.197 9.656 218.197 10.296L216.917 11.896C217.386 12.8773 218.048 14.9467 218.901 18.104C219.797 21.2187 220.245 23.4587 220.245 24.824C220.074 31.48 219.754 34.808 219.285 34.808C217.877 35.3627 217.173 35.9173 217.173 36.472ZM255.721 26.488L254.953 25.272C254.953 25.2293 254.996 25.1653 255.081 25.08C255.209 24.952 255.337 24.7387 255.465 24.44C255.636 24.1413 255.806 23.7573 255.977 23.288C256.361 22.2213 256.553 20.5147 256.553 18.168C256.553 18.1253 256.276 17.8907 255.721 17.464C255.166 16.9947 254.889 16.6533 254.889 16.44C254.889 16.056 255.252 15.0533 255.977 13.432L256.361 12.664C256.361 12.152 256.105 11.6613 255.593 11.192C255.081 10.7227 254.569 10.3813 254.057 10.168L253.353 9.848C251.561 11.3413 250.665 12.4507 250.665 13.176L251.049 17.4C250.238 18.1253 249.833 18.6587 249.833 19C249.833 19.3413 249.876 19.5547 249.961 19.64C250.601 20.2373 250.921 20.6853 250.921 20.984C250.921 21.24 250.857 21.432 250.729 21.56C250.644 21.6453 250.601 21.9867 250.601 22.584L250.665 25.4C250.665 26.3387 250.601 26.936 250.473 27.192C251.113 27.9173 251.668 28.28 252.137 28.28C252.649 28.28 253.374 28.0667 254.313 27.64C255.252 27.2133 255.721 26.8293 255.721 26.488ZM268.521 17.464L268.329 21.624C268.329 22.3493 268.393 22.9253 268.521 23.352V23.544C268.521 24.3973 267.668 25.9973 265.961 28.344C264.254 30.648 263.145 31.8 262.633 31.8C262.164 31.8 261.161 32.376 259.625 33.528C258.132 34.6373 257.385 35.3627 257.385 35.704C257.385 35.96 256.233 36.28 253.929 36.664C251.668 37.0053 250.537 37.2187 250.537 37.304C250.537 41.528 250.878 44.8987 251.561 47.416L251.881 48.632C251.881 48.9307 251.22 49.4 249.897 50.04C248.617 50.6373 247.87 51.0427 247.657 51.256C247.188 51.7253 246.185 52.088 244.649 52.344C243.881 52.344 242.388 52.0667 240.169 51.512C237.95 50.9573 236.841 50.4667 236.841 50.04C237.31 49.0587 237.716 46.7333 238.057 43.064L238.185 41.144C238.185 41.1013 238.27 41.016 238.441 40.888C239.038 40.5893 239.337 40.1413 239.337 39.544C239.337 38.904 238.953 38.3493 238.185 37.88C237.46 37.368 237.097 37.0693 237.097 36.984C237.097 36.472 237.396 35.6827 237.993 34.616L238.313 34.04L238.441 29.624C238.441 28.1733 238.377 27.384 238.249 27.256C238.121 27.128 238.057 26.9787 238.057 26.808L238.825 23.608C238.91 23.0107 238.953 22.328 238.953 21.56C238.953 19.3413 238.697 16.568 238.185 13.24L237.865 11.448L238.761 9.976C238.761 9.208 238.206 7.69333 237.097 5.432L236.521 4.216C238.91 2.12533 241.108 1.08 243.113 1.08C245.886 1.37866 247.358 1.63466 247.529 1.848C247.956 2.31733 248.404 3.34133 248.873 4.92L249.129 5.752C249.428 5.96533 249.662 6.072 249.833 6.072C250.004 6.072 250.11 6.02933 250.153 5.944C251.39 4.19466 252.158 2.91466 252.457 2.104C254.889 1.976 256.66 1.912 257.769 1.912L258.473 1.976H258.601C259.156 2.06133 260.052 2.31733 261.289 2.744C262.526 3.128 263.273 3.448 263.529 3.704C264.852 5.02667 266.132 7.096 267.369 9.912C267.796 10.8507 268.073 11.3627 268.201 11.448V11.512C268.201 11.64 267.86 12.088 267.177 12.856C266.537 13.5813 266.217 14.0507 266.217 14.264V14.328C266.217 14.7547 266.388 15.1173 266.729 15.416C267.07 15.672 267.476 15.8 267.945 15.8C268.329 15.8 268.521 16.3547 268.521 17.464ZM300.228 42.488L300.42 43.704C300.42 44.3013 300.057 45.4107 299.332 47.032C298.649 48.6107 298.244 49.4853 298.116 49.656C297.646 50.0827 296.558 50.296 294.852 50.296C291.609 50.296 288.644 50.1253 285.956 49.784L284.484 49.592C283.758 49.592 283.14 49.848 282.628 50.36C282.116 50.8293 281.348 51.064 280.324 51.064L274.564 50.68C272.43 50.68 271.364 50.424 271.364 49.912V49.784C271.577 49.0587 271.684 47.9067 271.684 46.328L271.364 40.952V40.888C271.364 40.6747 271.769 40.2693 272.58 39.672C273.39 39.0747 273.796 38.5413 273.796 38.072C273.796 37.6027 273.604 37.1547 273.22 36.728C272.836 36.3013 272.238 35.96 271.428 35.704C271.342 35.448 271.299 35.192 271.299 34.936L271.684 32.376C271.769 31.7787 271.812 31.224 271.812 30.712L271.236 20.472C271.236 20.344 271.406 20.152 271.748 19.896C272.388 19.4267 272.708 19.0213 272.708 18.68L272.388 17.272C272.132 17.016 271.812 16.8027 271.428 16.632C270.788 16.4187 270.468 16.2053 270.468 15.992C270.468 15.736 270.702 15.0107 271.172 13.816C271.684 12.6213 271.94 11.8747 271.94 11.576L270.852 5.944C270.852 5.60266 271.769 4.77067 273.604 3.448C275.438 2.08266 276.953 1.4 278.148 1.4C279.385 1.4 280.942 1.54933 282.82 1.848C284.74 2.14666 285.7 2.44533 285.7 2.744C285.7 3.256 285.529 4.62133 285.188 6.84C284.889 9.016 284.633 10.168 284.42 10.296C283.396 10.808 282.884 11.3627 282.884 11.96C282.884 12.5147 283.204 13.0907 283.844 13.688C284.526 14.2427 284.868 14.6053 284.868 14.776V14.84C284.526 19.576 284.356 22.84 284.356 24.632C284.356 26.3813 284.377 27.4053 284.42 27.704C284.505 27.96 284.718 28.28 285.06 28.664C285.444 29.048 285.635 29.3467 285.635 29.56C285.635 29.7733 285.401 30.2213 284.932 30.904C284.505 31.544 284.292 32.1413 284.292 32.696C284.42 34.0187 284.484 35.064 284.484 35.832C284.484 36.5573 284.441 36.9627 284.356 37.048C282.862 38.5413 282.116 39.8213 282.116 40.888C282.116 41.1013 282.222 41.4 282.436 41.784C282.649 42.168 282.82 42.36 282.948 42.36C283.118 42.36 283.609 42.0613 284.42 41.464C285.23 40.824 285.849 40.504 286.276 40.504H286.468C287.918 40.8027 289.284 40.952 290.564 40.952C291.844 40.952 292.676 40.76 293.06 40.376C294.51 38.9253 295.662 37.2187 296.516 35.256C296.729 34.744 296.9 34.488 297.028 34.488C298.222 34.488 299.31 35 300.292 36.024C301.316 37.048 301.828 37.9013 301.828 38.584C301.572 39.9067 301.23 40.824 300.804 41.336C300.42 41.8053 300.228 42.1893 300.228 42.488ZM321.954 25.528C321.911 25.4427 321.89 25.3787 321.89 25.336C321.335 23.5867 321.058 20.856 321.058 17.144V16.888C321.058 15.992 320.866 15.544 320.482 15.544C318.775 15.544 317.922 16.0347 317.922 17.016L318.178 19.96C318.178 20.216 317.9 21.0267 317.346 22.392C316.791 23.7573 316.514 24.8453 316.514 25.656C316.514 26.4667 316.62 26.872 316.833 26.872C317.218 26.872 317.794 26.744 318.562 26.488C319.33 26.1893 320.076 26.04 320.802 26.04C321.57 26.04 321.954 25.8693 321.954 25.528ZM309.794 11.96L308.962 8.248C308.962 7.864 310.583 6.79733 313.826 5.048C317.111 3.256 319.052 2.296 319.65 2.168C320.247 2.04 321.335 1.976 322.914 1.976C324.492 1.976 325.964 2.12533 327.33 2.424C330.231 3.064 331.682 3.68267 331.682 4.28C331.682 4.32266 331.575 4.87733 331.362 5.944C330.679 9.272 330.338 11.9173 330.338 13.88C330.338 14.0933 330.551 14.264 330.978 14.392C331.404 14.4773 331.618 14.5413 331.618 14.584C331.618 15.9493 332.023 20.088 332.833 27C333.687 33.8693 334.412 38.2 335.01 39.992V40.056C335.01 40.1413 334.668 40.4187 333.986 40.888C333.346 41.3573 333.026 41.8693 333.026 42.424C333.026 42.9787 333.346 43.3627 333.986 43.576C334.668 43.7893 335.33 43.96 335.97 44.088C336.61 44.1733 336.93 44.3867 336.93 44.728C336.887 44.8133 336.866 44.9627 336.866 45.176C336.866 45.3893 336.93 45.7733 337.058 46.328C337.186 47.1813 337.698 48.312 338.594 49.72L338.978 50.36C338.978 51.0853 337.762 51.8533 335.33 52.664C332.94 53.5173 331.148 53.944 329.954 53.944C328.802 53.944 327.65 53.7093 326.498 53.24C325.388 52.8133 324.471 52.344 323.746 51.832C323.063 51.32 322.722 50.9573 322.722 50.744C322.722 50.7013 322.764 50.4667 322.85 50.04C323.063 48.9733 323.17 47.8213 323.17 46.584L321.762 37.816C321.762 37.6453 322.146 37.496 322.914 37.368C323.682 37.24 324.066 36.9627 324.066 36.536C324.066 35.9813 323.746 35.512 323.106 35.128C322.466 34.744 321.676 34.552 320.738 34.552C319.842 34.552 318.754 34.7867 317.474 35.256C316.236 35.7253 315.511 36.1733 315.298 36.6C315.127 36.984 314.828 38.8827 314.402 42.296C313.975 45.6667 313.762 48.184 313.762 49.848C313.762 50.1893 312.631 50.6587 310.37 51.256C308.108 51.8533 306.231 52.152 304.738 52.152C303.97 52.152 302.711 51.5973 300.962 50.488L300.13 49.976C300.002 49.848 299.938 49.656 299.938 49.4V49.272C300.578 48.4613 301.346 46.7333 302.242 44.088L302.754 42.68C303.308 42.68 303.948 42.36 304.674 41.72C305.442 41.0373 305.826 40.568 305.826 40.312C305.826 40.0133 305.591 39.5653 305.122 38.968C304.652 38.328 304.418 37.944 304.418 37.816V37.752L306.786 31.864C306.786 30.9253 307.276 27.6187 308.258 21.944C309.282 16.2693 309.794 12.9413 309.794 11.96ZM338.223 3.96L338.991 4.088C339.801 4.088 340.847 3.78933 342.127 3.192C347.033 3.61866 349.508 3.96 349.551 4.216C350.105 8.056 350.383 10.3173 350.383 11C350.383 11.6827 350.361 12.0453 350.319 12.088C349.508 12.8133 349.06 13.2827 348.975 13.496V13.624C348.975 14.3493 349.273 14.7333 349.871 14.776C350.425 14.8613 350.703 14.9253 350.703 14.968C351.257 19.0213 351.833 21.048 352.431 21.048C353.241 20.8773 353.689 20.6427 353.775 20.344C355.225 16.4613 356.015 13.9653 356.143 12.856C356.655 12.6427 356.975 12.4293 357.103 12.216C357.273 11.96 357.572 11.2347 357.999 10.04C358.468 8.80266 358.703 7.90666 358.703 7.352V6.776C358.703 5.28267 358.788 4.49333 358.959 4.408C362.543 3.29867 364.847 2.744 365.871 2.744C369.54 3.64 371.375 4.38666 371.375 4.984C368.729 8.73866 367.172 11.1707 366.703 12.28V12.472C366.703 13.9227 366.383 14.968 365.743 15.608C364.164 15.864 363.375 16.44 363.375 17.336C363.759 17.848 363.951 18.232 363.951 18.488C360.921 24.5467 359.001 29.304 358.191 32.76C356.825 33.1013 355.993 33.7627 355.695 34.744C355.993 35.64 356.527 36.088 357.295 36.088H357.423C357.081 41.4213 356.911 44.6427 356.911 45.752L357.679 50.36V50.488C357.679 50.6587 357.316 50.8293 356.591 51C355.567 51 354.457 51.32 353.263 51.96C352.751 52.5573 351.876 53.0267 350.639 53.368C349.103 53.368 347.673 53.1547 346.351 52.728C345.028 52.3013 344.068 51.8533 343.47 51.384C342.916 50.9573 342.639 50.616 342.639 50.36V50.296C343.535 49.016 343.983 45.944 343.983 41.08V39.416C343.983 39.1173 343.727 38.6907 343.215 38.136C342.703 37.5813 342.447 37.2613 342.447 37.176C342.447 36.7493 342.852 36.1307 343.663 35.32C343.663 33.528 343.108 31.2453 341.999 28.472L341.487 27.128L341.423 26.936L341.615 25.72C341.615 25.5067 341.593 25.336 341.551 25.208L337.519 15.352V15.224C337.519 15.0533 337.753 14.648 338.223 14.008C338.735 13.368 338.991 12.92 338.991 12.664C338.991 12.2373 338.244 11.896 336.751 11.64C336.452 11.64 336.196 10.9573 335.983 9.592L335.919 8.888C335.876 8.76 335.577 8.29067 335.023 7.48C334.468 6.62666 334.191 6.072 334.191 5.816C334.191 5.73067 334.447 5.53867 334.959 5.24C336.324 4.38667 337.412 3.96 338.223 3.96ZM382.828 25.336C382.231 25.848 381.825 26.104 381.612 26.104C381.399 26.104 380.929 26.4667 380.204 27.192C379.521 27.8747 379.116 28.216 378.988 28.216L375.66 27.768C374.977 27.512 374.06 26.8933 372.908 25.912L372.332 25.464C372.204 25.336 372.14 24.9307 372.14 24.248C372.14 23.5227 372.268 22.5413 372.524 21.304C372.823 20.0667 373.057 19.448 373.228 19.448C374.039 19.448 375.212 18.68 376.748 17.144C377.26 16.9733 377.729 16.888 378.156 16.888C380.673 17.5707 381.932 18.3173 381.932 19.128C381.719 19.512 381.612 19.896 381.612 20.28C381.612 20.408 381.932 20.7067 382.572 21.176C383.212 21.6453 383.532 22.0293 383.532 22.328C383.489 23.9067 383.255 24.9093 382.828 25.336ZM381.996 42.936L382.188 41.272V41.208C381.676 40.696 380.823 40.312 379.628 40.056C379.543 40.0133 379.18 39.992 378.54 39.992C377.9 39.992 376.684 40.2907 374.892 40.888C373.612 41.4853 372.716 42.936 372.204 45.24V45.304C372.204 45.5173 372.567 46.1787 373.292 47.288C373.249 47.416 373.228 47.608 373.228 47.864L373.356 49.144C373.313 49.3573 373.633 49.6347 374.316 49.976C375.553 50.6587 376.748 51 377.9 51C379.095 51 379.799 50.808 380.012 50.424C380.225 50.04 380.545 49.72 380.972 49.464C381.441 49.1653 381.868 48.9307 382.252 48.76C382.679 48.5467 382.913 48.4187 382.956 48.376C383.511 47.2667 383.788 46.328 383.788 45.56C383.788 44.792 383.745 44.3653 383.66 44.28C383.575 44.1947 383.319 44.1093 382.892 44.024C382.508 43.9387 382.252 43.8107 382.124 43.64C382.039 43.4693 381.996 43.2347 381.996 42.936Z" fill="black"/>
</svg>
