<svg width="371" height="54" viewBox="0 0 371 54" fill="none" xmlns="http://www.w3.org/2000/svg">
<path d="M15.064 17.4L13.912 20.024C13.912 20.28 14.0187 20.6213 14.232 21.048C14.4453 21.432 14.6373 21.624 14.808 21.624C16.1307 21.1973 16.792 20.8347 16.792 20.536C16.792 20.4507 17.2827 20.1307 18.264 19.576C19.2453 19.0213 19.736 18.4027 19.736 17.72C19.736 17.5493 19.6507 17.3147 19.48 17.016C19.3093 16.7173 19.224 16.3973 19.224 16.056C19.224 15.7147 19.352 15.2027 19.608 14.52L19.928 13.56C19.928 12.9627 19.6293 12.2373 19.032 11.384C18.4347 10.5307 17.88 10.104 17.368 10.104C16.856 10.104 16.3013 10.3387 15.704 10.808C15.1067 11.2347 14.7867 11.5547 14.744 11.768V11.896L15.064 17.4ZM14.936 36.28L14.68 39.864C14.68 40.6747 14.7867 41.4 15 42.04C15.256 42.68 15.512 43 15.768 43C16.1093 43 16.728 42.8933 17.624 42.68C18.5627 42.424 19.1813 42.168 19.48 41.912C19.9067 41.4853 20.3547 40.76 20.824 39.736C21.2933 38.6693 21.528 37.944 21.528 37.56C21.528 37.1333 21.1867 36.5147 20.504 35.704C19.8213 34.8933 19.48 34.3813 19.48 34.168L19.992 31.992C19.992 31.5227 19.608 31.0747 18.84 30.648C18.1147 30.1787 17.56 29.944 17.176 29.944C16.792 29.944 16.28 30.392 15.64 31.288C15.0427 32.1413 14.744 32.696 14.744 32.952L14.936 35.704V36.28ZM32.024 42.04C31.0853 42.5947 30.616 43.128 30.616 43.64C30.616 44.1093 30.9147 44.7707 31.512 45.624C31.512 45.9227 31 46.5413 29.976 47.48C28.9947 48.4187 28.12 49.1653 27.352 49.72C26.584 50.232 25.3467 50.8507 23.64 51.576C21.976 52.3013 20.7173 52.664 19.864 52.664C19.0533 52.664 17.7093 52.3227 15.832 51.64C13.9547 51 12.952 50.68 12.824 50.68C12.696 50.68 12.2693 51.064 11.544 51.832C10.8187 52.6427 10.2427 53.048 9.816 53.048C8.36533 53.048 6.50933 52.3653 4.248 51C2.02933 49.6347 0.92 48.696 0.92 48.184C0.92 48.0987 1.06933 47.7147 1.368 47.032C2.22133 45.0693 2.648 42.424 2.648 39.096L2.52 36.216C2.52 36.1733 2.66933 36.088 2.968 35.96C3.94933 35.576 4.44 35.0427 4.44 34.36C4.44 33.6773 4.07733 33.0373 3.352 32.44C2.66933 31.8427 2.328 31.5013 2.328 31.416V31.352C2.62667 30.4133 2.776 28.792 2.776 26.488L2.584 18.36V17.464C2.584 17.208 2.41333 16.824 2.072 16.312C1.77333 15.8 1.624 15.3947 1.624 15.096C1.624 14.7547 1.90133 14.2213 2.456 13.496C3.01067 12.7707 3.288 12.1733 3.288 11.704C3.288 11.2347 2.776 10.168 1.752 8.504C0.770667 6.84 0.28 5.98667 0.28 5.944C0.28 5.38933 1.13333 4.62133 2.84 3.64C4.54667 2.616 5.848 2.104 6.744 2.104C8.62133 1.16533 10.0507 0.695999 11.032 0.695999C11.416 0.695999 12.0133 1.42133 12.824 2.872C13.6773 4.32266 14.168 5.048 14.296 5.048C14.424 5.048 15.0213 4.728 16.088 4.088C19.2027 2.21067 21.4853 1.272 22.936 1.272C24.4293 1.272 26.2427 1.93333 28.376 3.256C30.5093 4.536 31.576 5.56 31.576 6.328L30.744 7.16C30.1893 7.71466 29.912 8.26933 29.912 8.824C29.912 9.29333 30.3173 9.63467 31.128 9.848C31.9813 10.0187 32.408 10.1467 32.408 10.232C32.408 14.2853 31.4267 17.2933 29.464 19.256C28.9947 19.7253 28.2693 20.28 27.288 20.92C26.3493 21.56 25.6027 22.1573 25.048 22.712C24.536 23.224 24.28 23.8213 24.28 24.504C24.4507 25.144 24.664 25.464 24.92 25.464C25.0053 25.464 25.496 25.2293 26.392 24.76C27.3307 24.248 28.1413 23.992 28.824 23.992C29.08 23.992 29.6347 24.504 30.488 25.528C31.384 26.5093 32.2587 27.9387 33.112 29.816C34.008 31.6933 34.456 33.2933 34.456 34.616C34.456 35.9387 34.3067 37.304 34.008 38.712C33.7093 40.12 33.56 40.9307 33.56 41.144C33.56 41.3147 33.4533 41.464 33.24 41.592C32.728 41.8907 32.3227 42.04 32.024 42.04ZM50.384 24.184C50.8107 24.184 51.664 23.6507 52.944 22.584C54.2667 21.5173 54.928 20.856 54.928 20.6C54.928 20.3013 54.7787 19.8747 54.48 19.32C54.1813 18.7227 54.032 18.3173 54.032 18.104C54.032 17.848 54.2453 17.4427 54.672 16.888C55.0987 16.3333 55.312 15.9707 55.312 15.8C55.312 14.2213 55.12 12.8773 54.736 11.768C54.3947 10.6587 54.032 9.93333 53.648 9.592L53.072 9.08C52.4747 9.08 51.6213 9.44267 50.512 10.168C49.4453 10.8507 48.912 11.32 48.912 11.576V11.64C49.168 12.024 49.424 12.728 49.68 13.752C49.9787 14.7333 50.128 15.672 50.128 16.568C50.128 16.6533 49.9573 16.8667 49.616 17.208C49.2747 17.5493 49.0613 17.72 48.976 17.72C49.232 19.7253 49.36 21.1547 49.36 22.008C49.36 22.8613 49.3387 23.3733 49.296 23.544C49.6373 23.9707 50 24.184 50.384 24.184ZM67.344 11.192C67.7707 11.192 67.984 12.0027 67.984 13.624C67.984 15.2453 67.8773 16.7173 67.664 18.04C67.4933 19.3627 67.28 20.152 67.024 20.408C64.9333 22.5413 62.5013 24.3333 59.728 25.784C59.5147 26.2107 59.408 26.488 59.408 26.616C59.408 26.744 59.4507 26.808 59.536 26.808C60.9867 26.808 62.5867 27.4053 64.336 28.6C66.128 29.752 67.024 30.6907 67.024 31.416C66.9387 32.0133 66.896 32.8027 66.896 33.784C66.896 39.5867 68.304 43.896 71.12 46.712V46.776C71.12 47.16 70.3093 48.0773 68.688 49.528C67.0667 50.936 66.0213 51.64 65.552 51.64C63.8027 51.64 62.032 51.4907 60.24 51.192C58.448 50.8933 57.296 50.488 56.784 49.976C56.7413 49.9333 56.6987 49.592 56.656 48.952C56.528 46.9893 56.4 45.7947 56.272 45.368C56.272 45.2827 56.4213 45.1547 56.72 44.984C57.616 44.3867 58.064 43.7467 58.064 43.064C58.064 42.68 57.6587 42.4453 56.848 42.36C56.0373 42.232 55.632 42.0827 55.632 41.912C55.632 40.5467 55.44 38.456 55.056 35.64L54.864 34.232C54.736 33.72 54.4587 33.1867 54.032 32.632C53.6053 32.0773 53.2 31.672 52.816 31.416L52.24 30.968C51.5573 30.968 50.576 31.4587 49.296 32.44L48.656 32.888C48.656 33.1867 49.168 34.0187 50.192 35.384C49.6373 38.2 49.36 40.568 49.36 42.488V43.192C49.5307 43.192 49.744 43.3413 50 43.64C50.256 43.896 50.384 44.088 50.384 44.216L50.832 49.656C50.832 49.9973 50.7893 50.168 50.704 50.168C49.8507 50.168 48.6133 50.6373 46.992 51.576C45.4133 52.5147 44.1973 52.984 43.344 52.984C43.3013 52.984 43.0667 52.9413 42.64 52.856C41.1467 52.5573 40.1227 52.408 39.568 52.408C38.6293 52.408 37.456 51.7253 36.048 50.36L35.344 49.72C35.9413 48.5253 36.304 46.328 36.432 43.128L36.496 41.528C36.496 41.4853 36.6667 41.3787 37.008 41.208C37.392 40.9947 37.7547 40.7173 38.096 40.376C38.4373 39.992 38.608 39.608 38.608 39.224C38.608 38.9253 38.2667 38.648 37.584 38.392C36.944 38.136 36.624 37.9227 36.624 37.752C36.624 35.5333 36.7947 33.4 37.136 31.352C37.52 29.304 37.712 28.1733 37.712 27.96C37.712 27.7467 37.6053 27.5333 37.392 27.32C37.2213 27.1067 37.1147 26.168 37.072 24.504C37.0293 18.8293 36.7733 15.2027 36.304 13.624C36.304 13.5387 36.496 13.3893 36.88 13.176C37.264 12.92 37.456 12.6853 37.456 12.472C37.456 11.064 36.816 9.18666 35.536 6.84C35.152 6.11466 34.96 5.73067 34.96 5.688C34.96 5.432 35.5147 4.96266 36.624 4.28C37.776 3.55466 39.2053 2.89333 40.912 2.296C42.6613 1.656 44.176 1.336 45.456 1.336C45.7973 1.336 46.16 1.912 46.544 3.064C46.928 4.17333 47.12 5.02666 47.12 5.624C47.2907 5.79466 47.4613 5.88 47.632 5.88C47.8027 5.88 47.9307 5.83733 48.016 5.752C50.4053 3.448 51.728 2.25333 51.984 2.168C54.0747 1.95467 56.272 1.848 58.576 1.848C60.9227 1.848 62.352 2.104 62.864 2.616C64.9973 4.70667 66.064 6.60533 66.064 8.312C65.04 9.08 64.528 9.80533 64.528 10.488C64.528 11.0427 64.9973 11.32 65.936 11.32L67.344 11.192ZM85.7245 38.008C85.6392 38.8187 85.5965 40.2267 85.5965 42.232C85.5965 44.2373 86.1725 46.392 87.3245 48.696C87.3245 48.9093 87.0685 49.1867 86.5565 49.528C86.0872 49.8693 85.7458 50.1253 85.5325 50.296C85.3192 50.424 85.0205 50.6373 84.6365 50.936C84.2952 51.2347 84.0178 51.4693 83.8045 51.64C83.2072 52.1093 82.7805 52.344 82.5245 52.344C81.2872 52.344 79.2392 52.1093 76.3805 51.64C73.5645 51.1707 72.1565 50.7013 72.1565 50.232C72.1565 49.976 72.2632 48.9093 72.4765 47.032C72.6898 45.1547 72.8178 44.1093 72.8605 43.896L73.3085 43C73.6925 38.776 73.8845 36.0027 73.8845 34.68C73.8845 33.3573 73.8205 31.7147 73.6925 29.752C73.6072 27.7893 73.5005 26.2533 73.3725 25.144C73.2872 23.992 73.2445 23.3947 73.2445 23.352C73.2445 23.2667 73.4152 23.1173 73.7565 22.904C74.6952 22.264 75.1645 21.5813 75.1645 20.856C75.1645 20.1307 74.8018 19.5973 74.0765 19.256C73.3938 18.872 73.0525 18.616 73.0525 18.488C73.0525 18.0613 73.1592 17.08 73.3725 15.544C73.5858 13.9653 73.6925 12.7493 73.6925 11.896C73.6925 11.0427 73.4152 9.848 72.8605 8.312C72.3485 6.776 72.0925 5.90133 72.0925 5.688C72.0925 5.34667 73.0738 4.57867 75.0365 3.384C77.0418 2.14666 78.4498 1.528 79.2605 1.528C80.1138 1.528 81.5005 1.80533 83.4205 2.36C85.3405 2.872 86.3005 3.448 86.3005 4.088C86.3005 4.55733 86.0658 5.73066 85.5965 7.608C85.1272 9.48533 84.8925 10.552 84.8925 10.808C84.8925 11.064 85.0205 11.2987 85.2765 11.512C85.5752 11.6827 85.7245 11.896 85.7245 12.152C85.2552 17.016 85.0205 20.3013 85.0205 22.008C85.0205 23.672 85.0418 24.6533 85.0845 24.952C85.1272 25.208 85.2552 25.5067 85.4685 25.848C85.6818 26.1893 85.7885 26.5307 85.7885 26.872C85.7885 26.9147 85.4472 27.2133 84.7645 27.768C84.1245 28.3227 83.8045 28.8133 83.8045 29.24C83.8045 29.6667 84.1672 30.1787 84.8925 30.776C85.6178 31.3733 85.9805 31.992 85.9805 32.632C85.8525 33.4853 85.7672 33.9547 85.7245 34.04C85.7245 34.0827 85.4045 34.3387 84.7645 34.808C84.1245 35.2347 83.8045 35.5333 83.8045 35.704V36.152C83.8045 36.7067 84.2312 37.1333 85.0845 37.432C85.5112 37.6027 85.7245 37.7947 85.7245 38.008ZM105.137 24.952C105.094 26.36 104.881 27.512 104.497 28.408C104.156 29.304 103.985 30.9467 103.985 33.336C103.985 35.7253 104.156 37.944 104.497 39.992C104.497 40.8027 104.028 41.6133 103.089 42.424C102.79 42.68 102.641 42.8933 102.641 43.064C102.641 43.192 102.79 43.4267 103.089 43.768C103.388 44.0667 103.814 44.216 104.369 44.216C104.924 44.216 105.628 44.0027 106.481 43.576C107.377 43.1067 108.06 42.6587 108.529 42.232L109.233 41.592C110.086 40.7387 110.513 39.3093 110.513 37.304L110.257 34.552C110.257 34.424 110.556 34.1893 111.153 33.848C111.793 33.5067 112.113 33.144 112.113 32.76C112.113 32.0773 111.665 31.416 110.769 30.776C110.257 30.6053 109.873 30.1573 109.617 29.432C109.617 29.3467 109.766 28.8987 110.065 28.088C110.961 25.656 111.409 24.12 111.409 23.48C111.409 22.7973 111.366 22.328 111.281 22.072C110.812 21.2613 110.492 19.4907 110.321 16.76C110.15 14.0293 109.873 12.3227 109.489 11.64C109.105 10.9147 108.572 10.296 107.889 9.784C107.249 9.272 106.694 8.93067 106.225 8.76L105.521 8.504C105.222 8.504 104.902 8.61066 104.561 8.824C104.22 9.03733 104.07 9.272 104.113 9.528C104.156 9.784 104.177 10.744 104.177 12.408C104.177 14.072 104.07 15.7147 103.857 17.336V17.4C103.857 17.6133 104.092 17.9973 104.561 18.552C105.073 19.064 105.329 19.4907 105.329 19.832C105.329 20.1733 105.009 20.7067 104.369 21.432C103.772 22.1147 103.473 22.6053 103.473 22.904C103.473 23.2027 103.75 23.5867 104.305 24.056C104.86 24.4827 105.137 24.7813 105.137 24.952ZM123.633 27.96L123.825 30.776C123.825 31.1173 123.761 31.3093 123.633 31.352C122.993 31.9067 122.673 33.016 122.673 34.68C122.289 37.4107 121.926 38.8613 121.585 39.032C119.836 39.3307 118.961 39.992 118.961 41.016C118.961 41.4427 119.153 41.848 119.537 42.232C119.964 42.5733 120.177 42.8293 120.177 43C120.177 43.1707 119.601 43.9173 118.449 45.24C117.34 46.52 116.188 47.5653 114.993 48.376C113.798 49.1867 112.326 50.04 110.577 50.936C108.828 51.7893 107.526 52.216 106.673 52.216C106.588 52.216 106.438 52.088 106.225 51.832C106.054 51.576 105.841 51.448 105.585 51.448C105.585 51.448 103.537 51.6187 99.441 51.96C97.2223 51.96 94.9183 51.6613 92.529 51.064L91.249 50.744C91.0357 50.6587 90.8223 50.4453 90.609 50.104C90.3957 49.7627 90.289 49.5067 90.289 49.336L90.353 49.208C91.0783 48.0987 91.441 45.8373 91.441 42.424V42.296C91.441 42.2107 91.761 41.9973 92.401 41.656C93.0837 41.272 93.425 40.7813 93.425 40.184C93.425 39.5867 93.041 38.9893 92.273 38.392C91.505 37.7947 91.121 37.432 91.121 37.304V37.24C91.5477 35.448 91.761 31.224 91.761 24.568V22.776C91.761 21.624 91.5477 20.5787 91.121 19.64V19.512L91.761 17.848C91.8463 17.592 91.889 17.1013 91.889 16.376L91.633 10.936C91.4197 9.61333 90.9717 8.44 90.289 7.416C89.6063 6.34933 89.265 5.79467 89.265 5.752C89.265 5.66666 89.3077 5.51733 89.393 5.304C89.6917 4.57867 90.0757 4.088 90.545 3.832C91.0143 3.53333 92.8063 3.02133 95.921 2.296C99.0783 1.57066 101.19 1.208 102.257 1.208C103.366 1.208 105.35 1.464 108.209 1.976C111.11 2.488 113.073 3 114.097 3.512C115.121 4.024 116.614 5.24 118.577 7.16C120.54 9.03733 121.521 10.2107 121.521 10.68C121.521 10.808 121.329 11.2133 120.945 11.896C120.561 12.536 120.369 13.0053 120.369 13.304C120.369 13.6027 120.774 14.008 121.585 14.52C122.396 14.9893 122.844 15.4373 122.929 15.864C123.356 18.2107 123.612 19.9813 123.697 21.176L123.761 22.712C123.761 23.48 123.74 24.5467 123.697 25.912L123.633 27.96ZM139.17 21.304L149.602 20.728C150.924 20.728 151.586 20.92 151.586 21.304C151.586 22.456 151.095 24.2693 150.114 26.744C149.132 29.176 148.364 30.392 147.81 30.392L146.722 29.752C145.996 29.368 145.228 29.176 144.418 29.176C141.346 29.176 139.682 29.304 139.426 29.56C139.17 29.816 139.042 31.7573 139.042 35.384C139.042 38.968 139.383 41.1013 140.066 41.784C140.748 42.4667 142.156 42.808 144.29 42.808C146.423 42.808 147.767 42.5307 148.322 41.976C148.919 41.3787 149.516 40.5893 150.114 39.608C150.754 38.6267 151.266 37.7947 151.65 37.112C152.034 36.3867 152.247 36.024 152.29 36.024C152.674 36.024 153.399 36.5573 154.466 37.624C155.575 38.6907 156.13 39.48 156.13 39.992C156.13 40.4613 155.66 42.2107 154.722 45.24C153.826 48.2267 153.186 49.912 152.802 50.296C152.759 50.3813 152.588 50.424 152.29 50.424L148.642 50.04C147.106 50.04 145.826 50.104 144.802 50.232C143.778 50.3173 143.18 50.36 143.01 50.36C142.882 50.36 142.54 50.232 141.986 49.976C141.474 49.72 141.09 49.592 140.833 49.592C140.62 49.592 140.428 49.656 140.258 49.784C140.13 49.912 140.002 50.0827 139.874 50.296C139.575 50.808 139.191 51.064 138.722 51.064L136.034 50.744C134.796 50.744 133.452 50.8933 132.002 51.192C130.594 51.4907 129.57 51.64 128.93 51.64C128.29 51.64 127.5 51.512 126.562 51.256C125.666 51.0427 125.218 50.7867 125.218 50.488C125.218 50.4027 125.324 49.976 125.538 49.208C126.22 46.8187 126.562 45.1547 126.562 44.216C126.562 43.2347 126.519 42.5947 126.434 42.296C126.434 42.2533 126.69 42.0613 127.202 41.72C127.756 41.336 128.034 40.8453 128.034 40.248C128.034 39.6507 127.65 39.1173 126.882 38.648C126.114 38.136 125.73 37.8587 125.73 37.816L126.306 35.128C126.69 33.336 126.882 32.12 126.882 31.48C126.882 30.84 126.818 30.3493 126.69 30.008C126.604 29.6667 126.562 29.4747 126.562 29.432V29.304C126.903 27.6827 127.074 25.8907 127.074 23.928C127.074 21.9227 126.988 20.0667 126.818 18.36C126.69 16.6107 126.626 15.7147 126.626 15.672C126.626 15.6293 126.839 15.4373 127.266 15.096C127.692 14.7547 127.906 14.3707 127.906 13.944C127.906 13.4747 127.692 12.8347 127.266 12.024C126.071 9.592 125.474 6.776 125.474 3.576C125.474 3.10666 126.946 2.70133 129.89 2.36C132.834 1.976 135.65 1.784 138.338 1.784C138.892 1.784 139.362 2.01866 139.746 2.488C140.13 2.95733 140.45 3.192 140.706 3.192C141.004 3.192 142.263 2.97866 144.482 2.552C146.743 2.12533 148.514 1.912 149.794 1.912C152.908 1.912 154.466 2.27466 154.466 3C154.466 4.23733 154.21 5.90133 153.698 7.992C153.186 10.04 152.802 11.192 152.546 11.448C152.119 11.96 151.052 12.216 149.346 12.216C149.175 12.216 148.94 11.9173 148.642 11.32C148.386 10.68 147.874 10.0613 147.106 9.464C146.38 8.824 145.57 8.504 144.674 8.504C143.778 8.504 142.818 8.696 141.794 9.08C140.77 9.42133 140.13 9.72 139.874 9.976C139.618 10.232 139.49 11.32 139.49 13.24C139.49 15.1173 139.596 16.5253 139.81 17.464V17.656C139.81 17.9547 139.383 18.232 138.53 18.488C137.676 18.744 137.25 19.576 137.25 20.984C137.25 21.1973 137.89 21.304 139.17 21.304ZM174.9 24.76L174.452 23.736C174.452 23.4373 175.433 22.392 177.396 20.6C179.401 18.7653 180.66 17.7413 181.172 17.528C184.414 16.8453 186.612 16.504 187.764 16.504C187.892 16.504 188.468 16.7387 189.492 17.208C190.516 17.6773 191.134 17.9547 191.348 18.04C191.561 18.0827 191.966 18.488 192.564 19.256C193.161 19.9813 193.46 20.4293 193.46 20.6C193.246 21.7947 193.054 22.392 192.884 22.392C190.196 22.52 188.404 22.84 187.508 23.352C187.081 23.5653 186.228 24.376 184.948 25.784C183.71 27.1493 182.9 28.216 182.516 28.984C182.174 29.7093 182.004 32.0773 182.004 36.088C183.241 36.6427 183.86 37.2613 183.86 37.944C183.39 39.9493 183.156 41.1013 183.156 41.4C183.156 41.656 183.326 42.1467 183.668 42.872C184.009 43.5973 184.35 44.1307 184.692 44.472C185.332 44.8133 185.844 44.984 186.228 44.984C186.654 44.984 186.932 44.92 187.06 44.792C188.084 43.768 188.596 42.0187 188.596 39.544C188.596 38.9893 188.553 38.4133 188.468 37.816C187.7 37.0907 187.316 36.28 187.316 35.384C187.316 35.256 187.508 35.0213 187.892 34.68C188.276 34.296 188.468 33.8907 188.468 33.464C188.468 33.0373 188.297 32.568 187.956 32.056C187.614 31.544 187.273 31.16 186.932 30.904C186.59 30.6053 186.42 30.4133 186.42 30.328C186.42 29.7733 187.081 28.7493 188.404 27.256C189.769 25.7627 190.729 25.016 191.284 25.016H192.18C195.806 25.016 197.62 25.2507 197.62 25.72C197.406 26.872 197.3 27.5333 197.3 27.704C197.3 27.8747 197.684 28.6853 198.452 30.136C199.22 31.5867 199.604 32.9733 199.604 34.296C198.494 35.192 197.94 35.8533 197.94 36.28C197.94 36.664 198.153 37.048 198.58 37.432C199.006 37.816 199.22 38.0293 199.22 38.072C199.22 38.456 199.049 39.3307 198.708 40.696C198.366 42.0187 198.196 43.0427 198.196 43.768C198.196 44.4933 197.172 45.88 195.124 47.928C193.161 49.8053 191.86 50.744 191.22 50.744H191.156C190.942 50.5733 190.601 50.488 190.132 50.488L189.428 50.552C188.788 50.552 188.318 50.9787 188.02 51.832C187.892 52.216 187.742 52.472 187.572 52.6C187.444 52.7707 186.932 52.856 186.036 52.856L180.595 52.408C179.529 52.1093 178.313 51.384 176.948 50.232C175.625 49.08 174.964 48.3547 174.964 48.056C174.964 48.0133 175.177 47.736 175.604 47.224C176.03 46.6693 176.244 46.264 176.244 46.008C176.244 45.5813 175.966 45.176 175.411 44.792L173.172 45.112C172.958 45.112 172.724 44.5573 172.468 43.448C171.828 41.0587 171.508 37.7733 171.508 33.592C171.508 32.9947 171.998 31.4587 172.98 28.984C173.961 26.5093 174.601 25.1227 174.9 24.824V24.76ZM207.76 14.712L209.681 14.904C210.065 14.904 210.449 14.84 210.833 14.712C211.558 15.608 211.921 16.2267 211.921 16.568C211.494 18.104 211.281 19.896 211.281 21.944C211.409 22.712 211.75 23.096 212.305 23.096C215.334 18.616 217.297 16.376 218.193 16.376C220.326 16.504 222.118 17.3147 223.569 18.808C224.123 20.5147 224.401 22.2427 224.401 23.992C224.187 26.936 223.953 28.5147 223.697 28.728C222.971 28.9413 222.459 29.048 222.161 29.048H222.033C220.497 28.024 219.238 27.512 218.257 27.512C217.275 27.512 215.889 28.3227 214.097 29.944C212.305 31.5653 211.409 32.696 211.409 33.336C211.451 34.4453 211.686 35 212.113 35C212.454 34.872 212.795 34.808 213.137 34.808C213.478 34.808 213.649 34.936 213.649 35.192C213.435 38.0933 213.329 40.376 213.329 42.04C213.329 43.6613 213.393 44.6213 213.521 44.92C213.222 45.6453 213.073 46.136 213.073 46.392C213.073 46.648 213.265 47.224 213.649 48.12C214.075 49.016 214.289 49.592 214.289 49.848C214.289 50.232 213.265 50.9573 211.217 52.024C209.211 53.0907 207.825 53.624 207.057 53.624C206.331 53.624 205.073 53.5387 203.281 53.368C201.489 53.24 200.593 53.0053 200.593 52.664C200.593 52.5787 200.721 51.832 200.977 50.424C201.275 49.016 201.424 47.7147 201.424 46.52L202.129 46.072C202.598 45.7733 202.833 45.368 202.833 44.856C202.833 44.3013 202.257 43.704 201.105 43.064C201.318 42.168 201.531 39.5013 201.745 35.064L201.809 32.952L200.849 28.664C200.849 28.6213 200.998 28.472 201.297 28.216C201.595 27.9173 201.745 27.4907 201.745 26.936C201.745 26.3813 201.467 25.144 200.913 23.224C200.358 21.304 200.081 20.088 200.081 19.576C200.081 19.064 200.145 18.7653 200.273 18.68C200.401 18.5947 200.657 18.4667 201.041 18.296C201.425 18.0827 201.745 17.8907 202.001 17.72C202.257 17.5493 202.641 17.272 203.153 16.888C203.707 16.4613 204.177 16.0987 204.561 15.8C205.67 15.0747 206.737 14.712 207.76 14.712ZM256.012 24.952C255.969 26.36 255.756 27.512 255.372 28.408C255.031 29.304 254.86 30.9467 254.86 33.336C254.86 35.7253 255.031 37.944 255.372 39.992C255.372 40.8027 254.903 41.6133 253.964 42.424C253.665 42.68 253.516 42.8933 253.516 43.064C253.516 43.192 253.665 43.4267 253.964 43.768C254.263 44.0667 254.689 44.216 255.244 44.216C255.799 44.216 256.503 44.0027 257.356 43.576C258.252 43.1067 258.935 42.6587 259.404 42.232L260.108 41.592C260.961 40.7387 261.388 39.3093 261.388 37.304L261.132 34.552C261.132 34.424 261.431 34.1893 262.028 33.848C262.668 33.5067 262.988 33.144 262.988 32.76C262.988 32.0773 262.54 31.416 261.644 30.776C261.132 30.6053 260.748 30.1573 260.492 29.432C260.492 29.3467 260.641 28.8987 260.94 28.088C261.836 25.656 262.284 24.12 262.284 23.48C262.284 22.7973 262.241 22.328 262.156 22.072C261.687 21.2613 261.367 19.4907 261.196 16.76C261.025 14.0293 260.748 12.3227 260.364 11.64C259.98 10.9147 259.447 10.296 258.764 9.784C258.124 9.272 257.569 8.93067 257.1 8.76L256.396 8.504C256.097 8.504 255.777 8.61066 255.436 8.824C255.095 9.03733 254.945 9.272 254.988 9.528C255.031 9.784 255.052 10.744 255.052 12.408C255.052 14.072 254.945 15.7147 254.732 17.336V17.4C254.732 17.6133 254.967 17.9973 255.436 18.552C255.948 19.064 256.204 19.4907 256.204 19.832C256.204 20.1733 255.884 20.7067 255.244 21.432C254.647 22.1147 254.348 22.6053 254.348 22.904C254.348 23.2027 254.625 23.5867 255.18 24.056C255.735 24.4827 256.012 24.7813 256.012 24.952ZM274.508 27.96L274.7 30.776C274.7 31.1173 274.636 31.3093 274.508 31.352C273.868 31.9067 273.548 33.016 273.548 34.68C273.164 37.4107 272.801 38.8613 272.46 39.032C270.711 39.3307 269.836 39.992 269.836 41.016C269.836 41.4427 270.028 41.848 270.412 42.232C270.839 42.5733 271.052 42.8293 271.052 43C271.052 43.1707 270.476 43.9173 269.324 45.24C268.215 46.52 267.063 47.5653 265.868 48.376C264.673 49.1867 263.201 50.04 261.452 50.936C259.703 51.7893 258.401 52.216 257.548 52.216C257.463 52.216 257.313 52.088 257.1 51.832C256.929 51.576 256.716 51.448 256.46 51.448C256.46 51.448 254.412 51.6187 250.316 51.96C248.097 51.96 245.793 51.6613 243.404 51.064L242.124 50.744C241.911 50.6587 241.697 50.4453 241.484 50.104C241.271 49.7627 241.164 49.5067 241.164 49.336L241.228 49.208C241.953 48.0987 242.316 45.8373 242.316 42.424V42.296C242.316 42.2107 242.636 41.9973 243.276 41.656C243.959 41.272 244.3 40.7813 244.3 40.184C244.3 39.5867 243.916 38.9893 243.148 38.392C242.38 37.7947 241.996 37.432 241.996 37.304V37.24C242.423 35.448 242.636 31.224 242.636 24.568V22.776C242.636 21.624 242.423 20.5787 241.996 19.64V19.512L242.636 17.848C242.721 17.592 242.764 17.1013 242.764 16.376L242.508 10.936C242.295 9.61333 241.847 8.44 241.164 7.416C240.481 6.34933 240.14 5.79467 240.14 5.752C240.14 5.66666 240.183 5.51733 240.268 5.304C240.567 4.57867 240.951 4.088 241.42 3.832C241.889 3.53333 243.681 3.02133 246.796 2.296C249.953 1.57066 252.065 1.208 253.132 1.208C254.241 1.208 256.225 1.464 259.084 1.976C261.985 2.488 263.948 3 264.972 3.512C265.996 4.024 267.489 5.24 269.452 7.16C271.415 9.03733 272.396 10.2107 272.396 10.68C272.396 10.808 272.204 11.2133 271.82 11.896C271.436 12.536 271.244 13.0053 271.244 13.304C271.244 13.6027 271.649 14.008 272.46 14.52C273.271 14.9893 273.719 15.4373 273.804 15.864C274.231 18.2107 274.487 19.9813 274.572 21.176L274.636 22.712C274.636 23.48 274.615 24.5467 274.572 25.912L274.508 27.96ZM290.6 38.008C290.514 38.8187 290.472 40.2267 290.472 42.232C290.472 44.2373 291.048 46.392 292.2 48.696C292.2 48.9093 291.944 49.1867 291.432 49.528C290.962 49.8693 290.621 50.1253 290.408 50.296C290.194 50.424 289.896 50.6373 289.512 50.936C289.17 51.2347 288.893 51.4693 288.68 51.64C288.082 52.1093 287.656 52.344 287.4 52.344C286.162 52.344 284.114 52.1093 281.256 51.64C278.44 51.1707 277.032 50.7013 277.032 50.232C277.032 49.976 277.138 48.9093 277.352 47.032C277.565 45.1547 277.693 44.1093 277.736 43.896L278.184 43C278.568 38.776 278.76 36.0027 278.76 34.68C278.76 33.3573 278.696 31.7147 278.568 29.752C278.482 27.7893 278.376 26.2533 278.248 25.144C278.162 23.992 278.12 23.3947 278.12 23.352C278.12 23.2667 278.29 23.1173 278.632 22.904C279.57 22.264 280.04 21.5813 280.04 20.856C280.04 20.1307 279.677 19.5973 278.952 19.256C278.269 18.872 277.928 18.616 277.928 18.488C277.928 18.0613 278.034 17.08 278.248 15.544C278.461 13.9653 278.568 12.7493 278.568 11.896C278.568 11.0427 278.29 9.848 277.736 8.312C277.224 6.776 276.968 5.90133 276.968 5.688C276.968 5.34667 277.949 4.57867 279.911 3.384C281.917 2.14666 283.325 1.528 284.135 1.528C284.989 1.528 286.376 1.80533 288.296 2.36C290.216 2.872 291.176 3.448 291.176 4.088C291.176 4.55733 290.941 5.73066 290.472 7.608C290.002 9.48533 289.768 10.552 289.768 10.808C289.768 11.064 289.896 11.2987 290.152 11.512C290.45 11.6827 290.6 11.896 290.6 12.152C290.13 17.016 289.896 20.3013 289.896 22.008C289.896 23.672 289.917 24.6533 289.96 24.952C290.002 25.208 290.13 25.5067 290.344 25.848C290.557 26.1893 290.664 26.5307 290.664 26.872C290.664 26.9147 290.322 27.2133 289.64 27.768C289 28.3227 288.68 28.8133 288.68 29.24C288.68 29.6667 289.042 30.1787 289.768 30.776C290.493 31.3733 290.856 31.992 290.856 32.632C290.728 33.4853 290.642 33.9547 290.6 34.04C290.6 34.0827 290.28 34.3387 289.64 34.808C289 35.2347 288.68 35.5333 288.68 35.704V36.152C288.68 36.7067 289.106 37.1333 289.96 37.432C290.386 37.6027 290.6 37.7947 290.6 38.008ZM308.732 21.304L319.164 20.728C320.487 20.728 321.148 20.92 321.148 21.304C321.148 22.456 320.657 24.2693 319.676 26.744C318.695 29.176 317.927 30.392 317.372 30.392L316.284 29.752C315.559 29.368 314.791 29.176 313.98 29.176C310.908 29.176 309.244 29.304 308.988 29.56C308.732 29.816 308.604 31.7573 308.604 35.384C308.604 38.968 308.945 41.1013 309.628 41.784C310.311 42.4667 311.719 42.808 313.852 42.808C315.985 42.808 317.329 42.5307 317.884 41.976C318.481 41.3787 319.079 40.5893 319.676 39.608C320.316 38.6267 320.828 37.7947 321.212 37.112C321.596 36.3867 321.809 36.024 321.852 36.024C322.236 36.024 322.961 36.5573 324.028 37.624C325.137 38.6907 325.692 39.48 325.692 39.992C325.692 40.4613 325.223 42.2107 324.284 45.24C323.388 48.2267 322.748 49.912 322.364 50.296C322.321 50.3813 322.151 50.424 321.852 50.424L318.204 50.04C316.668 50.04 315.388 50.104 314.364 50.232C313.34 50.3173 312.743 50.36 312.572 50.36C312.444 50.36 312.103 50.232 311.548 49.976C311.036 49.72 310.652 49.592 310.396 49.592C310.183 49.592 309.991 49.656 309.82 49.784C309.692 49.912 309.564 50.0827 309.436 50.296C309.137 50.808 308.753 51.064 308.284 51.064L305.596 50.744C304.359 50.744 303.015 50.8933 301.564 51.192C300.156 51.4907 299.132 51.64 298.492 51.64C297.852 51.64 297.063 51.512 296.124 51.256C295.228 51.0427 294.78 50.7867 294.78 50.488C294.78 50.4027 294.887 49.976 295.1 49.208C295.783 46.8187 296.124 45.1547 296.124 44.216C296.124 43.2347 296.081 42.5947 295.996 42.296C295.996 42.2533 296.252 42.0613 296.764 41.72C297.319 41.336 297.596 40.8453 297.596 40.248C297.596 39.6507 297.212 39.1173 296.444 38.648C295.676 38.136 295.292 37.8587 295.292 37.816L295.868 35.128C296.252 33.336 296.444 32.12 296.444 31.48C296.444 30.84 296.38 30.3493 296.252 30.008C296.167 29.6667 296.124 29.4747 296.124 29.432V29.304C296.465 27.6827 296.636 25.8907 296.636 23.928C296.636 21.9227 296.551 20.0667 296.38 18.36C296.252 16.6107 296.188 15.7147 296.188 15.672C296.188 15.6293 296.401 15.4373 296.828 15.096C297.255 14.7547 297.468 14.3707 297.468 13.944C297.468 13.4747 297.255 12.8347 296.828 12.024C295.633 9.592 295.036 6.776 295.036 3.576C295.036 3.10666 296.508 2.70133 299.452 2.36C302.396 1.976 305.212 1.784 307.9 1.784C308.455 1.784 308.924 2.01866 309.308 2.488C309.692 2.95733 310.012 3.192 310.268 3.192C310.567 3.192 311.825 2.97866 314.044 2.552C316.305 2.12533 318.076 1.912 319.356 1.912C322.471 1.912 324.028 2.27466 324.028 3C324.028 4.23733 323.772 5.90133 323.26 7.992C322.748 10.04 322.364 11.192 322.108 11.448C321.681 11.96 320.615 12.216 318.908 12.216C318.737 12.216 318.503 11.9173 318.204 11.32C317.948 10.68 317.436 10.0613 316.668 9.464C315.943 8.824 315.132 8.504 314.236 8.504C313.34 8.504 312.38 8.696 311.356 9.08C310.332 9.42133 309.692 9.72 309.436 9.976C309.18 10.232 309.052 11.32 309.052 13.24C309.052 15.1173 309.159 16.5253 309.372 17.464V17.656C309.372 17.9547 308.945 18.232 308.092 18.488C307.239 18.744 306.812 19.576 306.812 20.984C306.812 21.1973 307.452 21.304 308.732 21.304ZM349.326 49.976L349.454 51.128C349.454 51.256 349.411 51.32 349.326 51.32H348.366C345.379 51.32 343.331 50.7653 342.222 49.656C342.051 49.4853 341.817 48.7813 341.518 47.544C341.219 46.3067 341.07 45.3253 341.07 44.6C341.07 43.832 341.134 43.384 341.262 43.256C341.39 43.128 341.667 42.8293 342.094 42.36C342.521 41.8907 342.883 41.5067 343.182 41.208C343.523 40.9093 343.95 40.568 344.462 40.184C345.486 39.416 346.681 39.032 348.046 39.032C348.089 39.032 348.643 39.3947 349.71 40.12C350.819 40.8453 351.737 41.208 352.462 41.208C352.803 41.208 353.102 42.4027 353.358 44.792L353.486 46.008C353.486 46.392 353.294 46.9893 352.91 47.8C352.526 48.568 352.249 48.952 352.078 48.952L351.246 48.888C350.478 48.888 349.966 49.016 349.71 49.272C349.454 49.528 349.326 49.7627 349.326 49.976ZM341.134 4.344C341.134 3.87467 342.073 3.256 343.95 2.488C345.827 1.72 347.171 1.336 347.982 1.336C348.025 1.336 348.814 1.54933 350.35 1.976C351.886 2.40266 352.91 2.65866 353.422 2.744C354.702 2.95733 355.342 3.128 355.342 3.256C355.342 5.26133 355.107 7.37333 354.638 9.592C354.169 11.768 353.635 13.1547 353.038 13.752C352.91 13.88 352.846 14.0507 352.846 14.264C352.846 14.4347 353.038 14.712 353.422 15.096C353.806 15.48 353.998 15.7147 353.998 15.8C353.998 15.8853 353.891 16.3973 353.678 17.336C352.953 20.2373 352.59 22.6693 352.59 24.632C352.59 24.6747 352.718 24.9093 352.974 25.336C353.273 25.7627 353.422 26.0827 353.422 26.296C353.422 26.4667 353.379 26.5733 353.294 26.616L352.014 28.472C351.801 28.6853 351.694 29.2187 351.694 30.072L352.014 33.464C350.137 35.256 348.259 36.152 346.382 36.152C346.126 36.152 345.614 35.9173 344.846 35.448C344.078 34.9787 343.694 34.5947 343.694 34.296C343.694 29.0053 343.587 26.04 343.374 25.4C342.819 24.248 342.542 23.5227 342.542 23.224C342.542 22.8827 342.585 22.6693 342.67 22.584C343.395 21.6453 343.758 20.9627 343.758 20.536C343.758 20.1093 343.395 19.64 342.67 19.128C341.987 18.616 341.646 18.3387 341.646 18.296C341.646 17.9973 341.838 17.528 342.222 16.888C342.649 16.2053 342.862 15.8 342.862 15.672C342.862 14.8187 342.563 12.9413 341.966 10.04C341.411 7.13867 341.134 5.24 341.134 4.344ZM364.264 49.976L364.392 51.128C364.392 51.256 364.349 51.32 364.264 51.32H363.304C360.317 51.32 358.269 50.7653 357.16 49.656C356.989 49.4853 356.754 48.7813 356.456 47.544C356.157 46.3067 356.008 45.3253 356.008 44.6C356.008 43.832 356.072 43.384 356.2 43.256C356.328 43.128 356.605 42.8293 357.032 42.36C357.458 41.8907 357.821 41.5067 358.12 41.208C358.461 40.9093 358.888 40.568 359.4 40.184C360.424 39.416 361.618 39.032 362.984 39.032C363.026 39.032 363.581 39.3947 364.648 40.12C365.757 40.8453 366.674 41.208 367.4 41.208C367.741 41.208 368.04 42.4027 368.296 44.792L368.424 46.008C368.424 46.392 368.232 46.9893 367.848 47.8C367.464 48.568 367.186 48.952 367.016 48.952L366.184 48.888C365.416 48.888 364.904 49.016 364.648 49.272C364.392 49.528 364.264 49.7627 364.264 49.976ZM356.072 4.344C356.072 3.87467 357.01 3.256 358.888 2.488C360.765 1.72 362.109 1.336 362.92 1.336C362.962 1.336 363.752 1.54933 365.288 1.976C366.824 2.40266 367.848 2.65866 368.36 2.744C369.64 2.95733 370.28 3.128 370.28 3.256C370.28 5.26133 370.045 7.37333 369.576 9.592C369.106 11.768 368.573 13.1547 367.976 13.752C367.848 13.88 367.784 14.0507 367.784 14.264C367.784 14.4347 367.976 14.712 368.36 15.096C368.744 15.48 368.936 15.7147 368.936 15.8C368.936 15.8853 368.829 16.3973 368.616 17.336C367.89 20.2373 367.528 22.6693 367.528 24.632C367.528 24.6747 367.656 24.9093 367.912 25.336C368.21 25.7627 368.36 26.0827 368.36 26.296C368.36 26.4667 368.317 26.5733 368.232 26.616L366.952 28.472C366.738 28.6853 366.632 29.2187 366.632 30.072L366.952 33.464C365.074 35.256 363.197 36.152 361.32 36.152C361.064 36.152 360.552 35.9173 359.784 35.448C359.016 34.9787 358.632 34.5947 358.632 34.296C358.632 29.0053 358.525 26.04 358.312 25.4C357.757 24.248 357.48 23.5227 357.48 23.224C357.48 22.8827 357.522 22.6693 357.608 22.584C358.333 21.6453 358.696 20.9627 358.696 20.536C358.696 20.1093 358.333 19.64 357.608 19.128C356.925 18.616 356.584 18.3387 356.584 18.296C356.584 17.9973 356.776 17.528 357.16 16.888C357.586 16.2053 357.799 15.8 357.799 15.672C357.799 14.8187 357.501 12.9413 356.904 10.04C356.349 7.13867 356.072 5.24 356.072 4.344Z" fill="black"/>
</svg>
