<svg width="307" height="54" viewBox="0 0 307 54" fill="none" xmlns="http://www.w3.org/2000/svg">
<path d="M15.872 13.56L16.896 16.504C16.896 16.5893 16.576 17.016 15.936 17.784C15.296 18.552 14.976 19.128 14.976 19.512C14.976 19.8533 15.2533 20.2587 15.808 20.728C16.4053 21.1973 16.704 21.56 16.704 21.816C15.7227 26.5947 15.232 30.0507 15.232 32.184C15.232 32.6533 15.744 33.4 16.768 34.424C16.8533 34.5093 16.896 34.68 16.896 34.936C16.896 35.1493 16.6827 35.7253 16.256 36.664C15.872 37.56 15.68 38.0933 15.68 38.264C15.68 39.416 16.192 40.5893 17.216 41.784C18.24 42.9787 19.2 43.576 20.096 43.576C20.6507 43.576 21.12 43.3627 21.504 42.936C21.9307 42.4667 22.3147 42.0187 22.656 41.592L23.232 40.952C23.2747 40.9093 23.296 40.8453 23.296 40.76C23.296 40.6747 23.04 40.248 22.528 39.48C22.0587 38.6693 21.824 38.1147 21.824 37.816C21.824 37.5173 22.0373 36.7067 22.464 35.384C22.9333 34.0187 23.168 33.0373 23.168 32.44L22.144 31.416C22.1013 31.3733 22.08 31.2453 22.08 31.032V30.904C22.08 30.1787 21.9307 29.6667 21.632 29.368L21.568 29.176C21.6533 28.7493 22.1653 27.9813 23.104 26.872C23.3173 26.6587 23.424 25.784 23.424 24.248L23.104 18.04C23.104 17.656 22.7627 17.208 22.08 16.696C21.44 16.184 21.12 15.864 21.12 15.736C21.12 14.6267 21.4187 13.368 22.016 11.96L22.336 11.256C22.336 10.744 21.76 10.168 20.608 9.528L20.032 9.208C19.3067 9.208 18.432 9.74133 17.408 10.808C16.384 11.832 15.872 12.7493 15.872 13.56ZM34.048 36.472C34.048 37.3253 34.4747 38.136 35.328 38.904C35.328 39.8427 35.008 41.0373 34.368 42.488C33.728 43.896 33.0453 45.0907 32.32 46.072C31.6373 47.0533 31.1893 47.544 30.976 47.544C29.9947 47.544 28.8427 47.8213 27.52 48.376C26.24 48.9307 25.1947 49.4853 24.384 50.04L23.168 50.872C22.7413 51.256 20.7787 51.64 17.28 52.024L15.552 52.216C13.76 52.216 11.904 51.4693 9.984 49.976C8.064 48.44 6.592 46.968 5.568 45.56C4.58667 44.152 4.096 43.3627 4.096 43.192C4.096 43.0213 4.18133 42.6587 4.352 42.104C4.56533 41.5493 4.672 41.016 4.672 40.504C4.672 39.48 4.01067 38.968 2.688 38.968L2.176 39.032C1.83467 39.032 1.408 36.7493 0.896 32.184L0.64 29.944L1.408 21.24C1.408 21.112 1.664 20.6853 2.176 19.96C2.688 19.2347 2.944 18.7867 2.944 18.616L2.816 13.112C2.816 11.448 2.88 10.5307 3.008 10.36C3.56267 9.592 5.33333 8.09866 8.32 5.88C11.3067 3.66133 13.5467 2.552 15.04 2.552C15.3387 1.82666 15.6587 1.464 16 1.464C18.1333 1.336 20.608 1.272 23.424 1.272C26.2827 1.272 27.9467 1.50667 28.416 1.976C28.4587 2.01866 28.9493 2.46666 29.888 3.32C30.8267 4.17333 31.616 4.92 32.256 5.56C32.896 6.2 33.5147 6.98933 34.112 7.928C34.752 8.86666 35.072 9.656 35.072 10.296L33.792 11.896C34.2613 12.8773 34.9227 14.9467 35.776 18.104C36.672 21.2187 37.12 23.4587 37.12 24.824C36.9493 31.48 36.6293 34.808 36.16 34.808C34.752 35.3627 34.048 35.9173 34.048 36.472ZM51.939 17.4L50.787 20.024C50.787 20.28 50.8937 20.6213 51.107 21.048C51.3203 21.432 51.5123 21.624 51.683 21.624C53.0057 21.1973 53.667 20.8347 53.667 20.536C53.667 20.4507 54.1577 20.1307 55.139 19.576C56.1203 19.0213 56.611 18.4027 56.611 17.72C56.611 17.5493 56.5257 17.3147 56.355 17.016C56.1843 16.7173 56.099 16.3973 56.099 16.056C56.099 15.7147 56.227 15.2027 56.483 14.52L56.803 13.56C56.803 12.9627 56.5043 12.2373 55.907 11.384C55.3097 10.5307 54.755 10.104 54.243 10.104C53.731 10.104 53.1763 10.3387 52.579 10.808C51.9817 11.2347 51.6617 11.5547 51.619 11.768V11.896L51.939 17.4ZM51.811 36.28L51.555 39.864C51.555 40.6747 51.6617 41.4 51.875 42.04C52.131 42.68 52.387 43 52.643 43C52.9843 43 53.603 42.8933 54.499 42.68C55.4377 42.424 56.0563 42.168 56.355 41.912C56.7817 41.4853 57.2297 40.76 57.699 39.736C58.1683 38.6693 58.403 37.944 58.403 37.56C58.403 37.1333 58.0617 36.5147 57.379 35.704C56.6963 34.8933 56.355 34.3813 56.355 34.168L56.867 31.992C56.867 31.5227 56.483 31.0747 55.715 30.648C54.9897 30.1787 54.435 29.944 54.051 29.944C53.667 29.944 53.155 30.392 52.515 31.288C51.9177 32.1413 51.619 32.696 51.619 32.952L51.811 35.704V36.28ZM68.899 42.04C67.9603 42.5947 67.491 43.128 67.491 43.64C67.491 44.1093 67.7897 44.7707 68.387 45.624C68.387 45.9227 67.875 46.5413 66.851 47.48C65.8697 48.4187 64.995 49.1653 64.227 49.72C63.459 50.232 62.2217 50.8507 60.515 51.576C58.851 52.3013 57.5923 52.664 56.739 52.664C55.9283 52.664 54.5843 52.3227 52.707 51.64C50.8297 51 49.827 50.68 49.699 50.68C49.571 50.68 49.1443 51.064 48.419 51.832C47.6937 52.6427 47.1177 53.048 46.691 53.048C45.2403 53.048 43.3843 52.3653 41.123 51C38.9043 49.6347 37.795 48.696 37.795 48.184C37.795 48.0987 37.9443 47.7147 38.243 47.032C39.0963 45.0693 39.523 42.424 39.523 39.096L39.395 36.216C39.395 36.1733 39.5443 36.088 39.843 35.96C40.8243 35.576 41.315 35.0427 41.315 34.36C41.315 33.6773 40.9523 33.0373 40.227 32.44C39.5443 31.8427 39.203 31.5013 39.203 31.416V31.352C39.5017 30.4133 39.651 28.792 39.651 26.488L39.459 18.36V17.464C39.459 17.208 39.2883 16.824 38.947 16.312C38.6483 15.8 38.499 15.3947 38.499 15.096C38.499 14.7547 38.7763 14.2213 39.331 13.496C39.8857 12.7707 40.163 12.1733 40.163 11.704C40.163 11.2347 39.651 10.168 38.627 8.504C37.6457 6.84 37.155 5.98667 37.155 5.944C37.155 5.38933 38.0083 4.62133 39.715 3.64C41.4217 2.616 42.723 2.104 43.619 2.104C45.4963 1.16533 46.9257 0.695999 47.907 0.695999C48.291 0.695999 48.8883 1.42133 49.699 2.872C50.5523 4.32266 51.043 5.048 51.171 5.048C51.299 5.048 51.8963 4.728 52.963 4.088C56.0777 2.21067 58.3603 1.272 59.811 1.272C61.3043 1.272 63.1177 1.93333 65.251 3.256C67.3843 4.536 68.451 5.56 68.451 6.328L67.619 7.16C67.0643 7.71466 66.787 8.26933 66.787 8.824C66.787 9.29333 67.1923 9.63467 68.003 9.848C68.8563 10.0187 69.283 10.1467 69.283 10.232C69.283 14.2853 68.3017 17.2933 66.339 19.256C65.8697 19.7253 65.1443 20.28 64.163 20.92C63.2243 21.56 62.4777 22.1573 61.923 22.712C61.411 23.224 61.155 23.8213 61.155 24.504C61.3257 25.144 61.539 25.464 61.795 25.464C61.8803 25.464 62.371 25.2293 63.267 24.76C64.2057 24.248 65.0163 23.992 65.699 23.992C65.955 23.992 66.5097 24.504 67.363 25.528C68.259 26.5093 69.1337 27.9387 69.987 29.816C70.883 31.6933 71.331 33.2933 71.331 34.616C71.331 35.9387 71.1817 37.304 70.883 38.712C70.5843 40.12 70.435 40.9307 70.435 41.144C70.435 41.3147 70.3283 41.464 70.115 41.592C69.603 41.8907 69.1977 42.04 68.899 42.04ZM101.576 31.928L101.96 40.888C101.96 41.4853 101.874 42.1467 101.704 42.872C101.576 43.5973 100.936 44.792 99.7835 46.456C98.6742 48.12 97.8208 48.952 97.2235 48.952L95.1755 48.312C95.0048 48.312 94.7488 48.504 94.4075 48.888C94.1088 49.272 93.7035 49.6987 93.1915 50.168C92.7222 50.6373 91.3142 51.2347 88.9675 51.96C86.6635 52.728 85.1062 53.112 84.2955 53.112C82.2475 53.112 80.1995 52.472 78.1515 51.192C76.1035 49.912 74.5675 48.7173 73.5435 47.608C73.5008 47.5653 73.2875 47.48 72.9035 47.352C72.5622 47.224 72.3275 47.1173 72.1995 47.032C72.1142 46.904 72.0715 46.5627 72.0715 46.008C72.0715 44.856 72.2635 43.2773 72.6475 41.272L72.8395 40.312C72.8395 40.312 72.5622 39.1813 72.0075 36.92C72.0075 36.4507 73.0528 35.4267 75.1435 33.848C77.2768 32.2693 78.8128 31.48 79.7515 31.48C80.6902 31.48 81.6288 31.6293 82.5675 31.928C83.7195 32.2267 84.2955 32.4613 84.2955 32.632C84.2955 32.8027 84.1248 33.4427 83.7835 34.552C83.4422 35.6187 83.2715 36.408 83.2715 36.92C83.2715 37.3893 83.5275 37.816 84.0395 38.2C84.5515 38.5413 84.8075 38.7547 84.8075 38.84C84.8075 39.4373 84.5728 40.12 84.1035 40.888C83.6342 41.656 83.3995 42.0613 83.3995 42.104C83.3995 42.6587 83.7835 43.2987 84.5515 44.024C85.3622 44.7493 85.9808 45.112 86.4075 45.112C87.0475 45.112 87.9435 44.6213 89.0955 43.64C89.7355 43 90.0555 41.6773 90.0555 39.672C90.0555 37.624 89.9488 36.4933 89.7355 36.28C89.5222 36.0667 89.4155 35.2773 89.4155 33.912V33.4C89.4155 33.3147 89.7355 33.0587 90.3755 32.632C91.0155 32.1627 91.3355 31.672 91.3355 31.16C91.3355 30.648 91.0368 30.2213 90.4395 29.88C89.8848 29.5387 89.6075 29.3467 89.6075 29.304L89.6715 27.96C89.7568 26.168 89.7995 23.6293 89.7995 20.344C89.7995 17.016 89.6502 14.8827 89.3515 13.944V13.88C89.3515 13.624 89.7142 13.2187 90.4395 12.664C91.1648 12.0667 91.5275 11.7467 91.5275 11.704C91.5275 11.32 91.3782 10.9573 91.0795 10.616C90.7808 10.2747 90.3328 10.104 89.7355 10.104C89.1382 10.104 88.5195 10.3173 87.8795 10.744C87.2395 11.1707 86.7488 11.5973 86.4075 12.024C86.1088 12.4507 85.8742 12.664 85.7035 12.664C85.5328 12.664 85.0848 12.3653 84.3595 11.768C83.6342 11.1707 83.2715 10.7013 83.2715 10.36C83.2715 10.0187 83.4848 8.99467 83.9115 7.288C84.3808 5.53866 84.7222 4.536 84.9355 4.28C85.3622 3.896 86.9622 3.27733 89.7355 2.424C92.5515 1.57066 94.8342 1.144 96.5835 1.144C96.8822 1.35733 97.0742 1.528 97.1595 1.656C97.2448 1.784 97.3302 1.848 97.4155 1.848L101.832 1.4C102.344 1.4 102.685 1.50666 102.856 1.72C103.069 1.89066 103.176 3.27733 103.176 5.88C103.176 6.52 102.834 7.608 102.152 9.144C101.469 10.6373 101.128 11.512 101.128 11.768C101.128 11.9813 101.384 12.3227 101.896 12.792C102.408 13.2187 102.664 13.56 102.664 13.816C102.664 14.072 102.365 14.4987 101.768 15.096C101.17 15.6507 100.872 16.12 100.872 16.504C100.872 16.8453 101.192 17.4427 101.832 18.296C102.472 19.1067 102.792 19.576 102.792 19.704C102.792 19.832 102.77 19.896 102.728 19.896C102.728 19.896 102.728 19.9173 102.728 19.96C101.96 21.3253 101.576 23.8213 101.576 27.448V31.928ZM119.045 21.304L129.477 20.728C130.799 20.728 131.461 20.92 131.461 21.304C131.461 22.456 130.97 24.2693 129.989 26.744C129.007 29.176 128.239 30.392 127.685 30.392L126.597 29.752C125.871 29.368 125.103 29.176 124.293 29.176C121.221 29.176 119.557 29.304 119.301 29.56C119.045 29.816 118.917 31.7573 118.917 35.384C118.917 38.968 119.258 41.1013 119.941 41.784C120.623 42.4667 122.031 42.808 124.165 42.808C126.298 42.808 127.642 42.5307 128.197 41.976C128.794 41.3787 129.391 40.5893 129.989 39.608C130.629 38.6267 131.141 37.7947 131.525 37.112C131.909 36.3867 132.122 36.024 132.165 36.024C132.549 36.024 133.274 36.5573 134.341 37.624C135.45 38.6907 136.005 39.48 136.005 39.992C136.005 40.4613 135.535 42.2107 134.597 45.24C133.701 48.2267 133.061 49.912 132.677 50.296C132.634 50.3813 132.463 50.424 132.165 50.424L128.517 50.04C126.981 50.04 125.701 50.104 124.677 50.232C123.653 50.3173 123.055 50.36 122.885 50.36C122.757 50.36 122.415 50.232 121.861 49.976C121.349 49.72 120.965 49.592 120.708 49.592C120.495 49.592 120.303 49.656 120.133 49.784C120.005 49.912 119.877 50.0827 119.749 50.296C119.45 50.808 119.066 51.064 118.597 51.064L115.909 50.744C114.671 50.744 113.327 50.8933 111.877 51.192C110.469 51.4907 109.445 51.64 108.805 51.64C108.165 51.64 107.375 51.512 106.437 51.256C105.541 51.0427 105.093 50.7867 105.093 50.488C105.093 50.4027 105.199 49.976 105.413 49.208C106.095 46.8187 106.437 45.1547 106.437 44.216C106.437 43.2347 106.394 42.5947 106.309 42.296C106.309 42.2533 106.565 42.0613 107.077 41.72C107.631 41.336 107.909 40.8453 107.909 40.248C107.909 39.6507 107.525 39.1173 106.757 38.648C105.989 38.136 105.605 37.8587 105.605 37.816L106.181 35.128C106.565 33.336 106.757 32.12 106.757 31.48C106.757 30.84 106.693 30.3493 106.565 30.008C106.479 29.6667 106.437 29.4747 106.437 29.432V29.304C106.778 27.6827 106.949 25.8907 106.949 23.928C106.949 21.9227 106.863 20.0667 106.693 18.36C106.565 16.6107 106.501 15.7147 106.501 15.672C106.501 15.6293 106.714 15.4373 107.141 15.096C107.567 14.7547 107.781 14.3707 107.781 13.944C107.781 13.4747 107.567 12.8347 107.141 12.024C105.946 9.592 105.349 6.776 105.349 3.576C105.349 3.10666 106.821 2.70133 109.765 2.36C112.709 1.976 115.525 1.784 118.213 1.784C118.767 1.784 119.237 2.01866 119.621 2.488C120.005 2.95733 120.325 3.192 120.581 3.192C120.879 3.192 122.138 2.97866 124.357 2.552C126.618 2.12533 128.389 1.912 129.669 1.912C132.783 1.912 134.341 2.27466 134.341 3C134.341 4.23733 134.085 5.90133 133.573 7.992C133.061 10.04 132.677 11.192 132.421 11.448C131.994 11.96 130.927 12.216 129.221 12.216C129.05 12.216 128.815 11.9173 128.517 11.32C128.261 10.68 127.749 10.0613 126.981 9.464C126.255 8.824 125.445 8.504 124.549 8.504C123.653 8.504 122.693 8.696 121.669 9.08C120.645 9.42133 120.005 9.72 119.749 9.976C119.493 10.232 119.365 11.32 119.365 13.24C119.365 15.1173 119.471 16.5253 119.685 17.464V17.656C119.685 17.9547 119.258 18.232 118.405 18.488C117.551 18.744 117.125 19.576 117.125 20.984C117.125 21.1973 117.765 21.304 119.045 21.304ZM150.585 14.008L150.713 14.84C150.713 14.968 150.563 15.736 150.265 17.144C149.966 18.5093 149.817 19.7467 149.817 20.856C149.817 21.0267 150.073 21.368 150.585 21.88C151.097 22.3493 151.353 22.84 151.353 23.352C151.353 23.8213 151.011 24.3547 150.329 24.952C149.646 25.5493 149.305 25.9973 149.305 26.296C149.305 26.5947 149.433 26.8933 149.689 27.192C149.987 27.4907 150.265 27.7253 150.521 27.896C150.777 28.0667 150.905 28.1947 150.905 28.28C150.777 28.792 150.713 29.8373 150.713 31.416V34.488C150.713 35.8533 150.67 36.7707 150.585 37.24V37.368C150.585 38.2213 151.161 39.3733 152.312 40.824C153.465 42.232 154.681 42.936 155.961 42.936C156.601 42.936 157.646 41.9973 159.097 40.12C160.547 38.2427 161.273 36.4507 161.273 34.744C161.273 34.5307 161.529 34.424 162.041 34.424H162.233C162.531 34.4667 163.321 34.8507 164.601 35.576C165.923 36.3013 166.755 36.856 167.097 37.24C167.481 37.5813 167.971 38.3067 168.569 39.416C169.209 40.4827 169.529 41.08 169.529 41.208C169.529 42.7867 168.398 44.8347 166.137 47.352C163.875 49.8693 162.382 51.128 161.657 51.128C161.571 51.128 161.337 50.9573 160.953 50.616C160.569 50.232 160.249 50.04 159.993 50.04C159.737 50.04 159.139 50.232 158.201 50.616C155.47 51.8533 152.91 52.472 150.521 52.472C149.625 52.472 148.003 51.768 145.657 50.36C143.353 48.952 141.881 47.736 141.241 46.712C140.089 44.8773 139.15 42.9573 138.424 40.952C137.699 38.904 137.337 37.6027 137.337 37.048L138.297 36.152C138.937 35.5547 139.257 34.9787 139.257 34.424C139.257 33.8693 138.958 33.336 138.361 32.824C137.806 32.2693 137.529 31.928 137.529 31.8C137.571 31.672 137.593 31.3093 137.593 30.712L137.273 24.568C137.273 23.5013 137.507 22.0293 137.977 20.152C138.446 18.232 138.681 17.0373 138.681 16.568C138.681 16.0987 138.553 15.544 138.297 14.904C138.083 14.264 137.977 13.9227 137.977 13.88C137.977 12.8133 139.534 10.8933 142.649 8.12C145.763 5.34667 148.217 3.64 150.009 3C153.251 2.06133 157.369 1.592 162.361 1.592C163.513 1.592 164.75 2.36 166.073 3.896C167.438 5.38933 168.121 6.34933 168.121 6.776C168.121 6.81866 167.907 7.13866 167.481 7.736C167.054 8.33333 166.841 8.86666 166.841 9.336C166.841 9.76266 167.182 10.232 167.865 10.744C168.59 11.256 168.953 11.6187 168.953 11.832C168.995 12.0453 169.017 12.3653 169.017 12.792C169.017 14.456 168.803 15.6293 168.377 16.312C167.95 16.952 167.225 17.8053 166.201 18.872C165.177 19.896 164.473 20.472 164.089 20.6C162.297 21.1973 160.227 21.496 157.881 21.496C157.71 21.496 157.497 21.3467 157.241 21.048C156.985 20.7493 156.857 20.536 156.857 20.408C156.857 20.28 156.878 20.216 156.921 20.216C157.603 19.4907 157.945 17.6773 157.945 14.776C157.945 14.3067 157.753 13.88 157.369 13.496C157.027 13.0693 156.857 12.7707 156.857 12.6V12.472L156.921 12.024C156.921 11.3413 156.793 10.68 156.537 10.04C156.281 9.4 155.875 9.08 155.321 9.08C154.297 9.08 153.251 9.656 152.185 10.808C151.118 11.9173 150.585 12.984 150.585 14.008ZM195.652 2.872L203.396 2.36C203.737 2.36 203.929 2.38133 203.972 2.424C204.228 2.68 204.676 4.28 205.316 7.224C205.999 10.1253 206.34 12.408 206.34 14.072C206.34 14.4133 205.7 15.032 204.42 15.928C203.183 16.7813 202.159 17.208 201.348 17.208C201.263 17.208 201.113 16.8667 200.9 16.184C200.175 13.8373 199.215 12.0667 198.02 10.872C196.484 10.3173 195.353 10.04 194.628 10.04C193.903 10.04 193.455 10.0827 193.284 10.168C193.156 10.2107 192.943 10.36 192.644 10.616C192.388 10.872 192.26 11.2133 192.26 11.64C194.223 12.536 195.204 13.1333 195.204 13.432C194.991 16.2053 194.884 18.936 194.884 21.624C193.86 22.4773 193.348 23.032 193.348 23.288C193.348 23.8427 193.519 24.2907 193.86 24.632C194.201 24.9733 194.543 25.208 194.884 25.336C195.225 25.464 195.396 25.5493 195.396 25.592C195.14 30.2 195.012 34.0613 195.012 37.176C195.012 40.248 195.097 42.296 195.268 43.32C196.249 45.752 196.74 47.5013 196.74 48.568C196.74 48.9093 196.228 49.3147 195.204 49.784C194.223 50.2533 193.412 50.5733 192.772 50.744C191.705 51 190.767 51.5333 189.956 52.344C187.652 52.344 185.732 52.2373 184.196 52.024C182.703 51.8107 181.764 51.5973 181.38 51.384L180.868 51.064L181.956 47.16C182.041 47.032 182.084 46.3707 182.084 45.176L182.02 40.312C182.02 39.6293 182.041 39.288 182.084 39.288C182.596 39.288 183.108 38.7333 183.62 37.624C183.62 37.4107 183.236 36.92 182.468 36.152C181.743 35.384 181.38 34.9147 181.38 34.744L182.34 32.888C182.425 32.5467 182.468 32.0773 182.468 31.48L182.276 25.528C182.276 24.76 182.34 24.312 182.468 24.184C182.596 24.056 182.66 23.9067 182.66 23.736C182.66 23.5227 182.425 23.1813 181.956 22.712C181.487 22.2 181.252 21.752 181.252 21.368L182.276 19.064C182.447 18.552 182.532 16.9093 182.532 14.136C182.532 11.3627 182.489 9.976 182.404 9.976C181.209 9.976 180.079 10.6587 179.012 12.024C177.945 13.3467 177.177 14.6907 176.708 16.056L176.004 18.104C175.151 18.104 174.276 17.8693 173.38 17.4C172.484 16.9307 171.801 16.4613 171.332 15.992C170.863 15.48 170.628 15.1173 170.628 14.904C170.628 14.648 171.055 12.5147 171.908 8.504C172.804 4.45066 173.359 2.40266 173.572 2.36C175.577 2.57333 176.857 2.76533 177.412 2.936C182.745 2.424 185.775 2.168 186.5 2.168L189.316 2.488C191.023 1.80533 191.983 1.464 192.196 1.464C192.879 1.76266 193.391 2.08266 193.732 2.424C194.073 2.72266 194.713 2.872 195.652 2.872ZM221.35 38.008C221.264 38.8187 221.222 40.2267 221.222 42.232C221.222 44.2373 221.798 46.392 222.95 48.696C222.95 48.9093 222.694 49.1867 222.182 49.528C221.712 49.8693 221.371 50.1253 221.158 50.296C220.944 50.424 220.646 50.6373 220.262 50.936C219.92 51.2347 219.643 51.4693 219.43 51.64C218.832 52.1093 218.406 52.344 218.15 52.344C216.912 52.344 214.864 52.1093 212.006 51.64C209.19 51.1707 207.782 50.7013 207.782 50.232C207.782 49.976 207.888 48.9093 208.102 47.032C208.315 45.1547 208.443 44.1093 208.486 43.896L208.934 43C209.318 38.776 209.51 36.0027 209.51 34.68C209.51 33.3573 209.446 31.7147 209.318 29.752C209.232 27.7893 209.126 26.2533 208.998 25.144C208.912 23.992 208.87 23.3947 208.87 23.352C208.87 23.2667 209.04 23.1173 209.382 22.904C210.32 22.264 210.79 21.5813 210.79 20.856C210.79 20.1307 210.427 19.5973 209.702 19.256C209.019 18.872 208.678 18.616 208.678 18.488C208.678 18.0613 208.784 17.08 208.998 15.544C209.211 13.9653 209.318 12.7493 209.318 11.896C209.318 11.0427 209.04 9.848 208.486 8.312C207.974 6.776 207.718 5.90133 207.718 5.688C207.718 5.34667 208.699 4.57867 210.661 3.384C212.667 2.14666 214.075 1.528 214.885 1.528C215.739 1.528 217.126 1.80533 219.046 2.36C220.966 2.872 221.926 3.448 221.926 4.088C221.926 4.55733 221.691 5.73066 221.222 7.608C220.752 9.48533 220.518 10.552 220.518 10.808C220.518 11.064 220.646 11.2987 220.902 11.512C221.2 11.6827 221.35 11.896 221.35 12.152C220.88 17.016 220.646 20.3013 220.646 22.008C220.646 23.672 220.667 24.6533 220.71 24.952C220.752 25.208 220.88 25.5067 221.094 25.848C221.307 26.1893 221.414 26.5307 221.414 26.872C221.414 26.9147 221.072 27.2133 220.39 27.768C219.75 28.3227 219.43 28.8133 219.43 29.24C219.43 29.6667 219.792 30.1787 220.518 30.776C221.243 31.3733 221.606 31.992 221.606 32.632C221.478 33.4853 221.392 33.9547 221.35 34.04C221.35 34.0827 221.03 34.3387 220.39 34.808C219.75 35.2347 219.43 35.5333 219.43 35.704V36.152C219.43 36.7067 219.856 37.1333 220.71 37.432C221.136 37.6027 221.35 37.7947 221.35 38.008ZM254.586 36.088C252.709 37.1547 251.77 37.9867 251.77 38.584C251.77 38.8827 252.026 39.2453 252.538 39.672C253.093 40.0987 253.37 40.3547 253.37 40.44C252.346 45.3893 251.834 48.376 251.834 49.4C251.834 49.6987 251.407 49.976 250.554 50.232C249.701 50.4453 249.253 50.552 249.21 50.552C247.333 51.5333 245.498 52.3227 243.706 52.92L242.746 53.24C242.533 53.2827 242.085 53.304 241.402 53.304C239.909 53.304 237.818 52.984 235.13 52.344L233.786 52.024C233.445 51.6827 233.018 48.9947 232.506 43.96L232.25 41.4C232.207 41.2293 232.015 40.9307 231.674 40.504C231.333 40.0773 231.162 39.6933 231.162 39.352C231.162 39.3093 231.439 39.032 231.994 38.52C232.549 38.008 232.826 37.5813 232.826 37.24C232.826 36.856 232.399 36.3867 231.546 35.832C230.735 35.2347 230.33 34.9147 230.33 34.872C230.33 34.4027 229.839 31.4373 228.858 25.976C227.877 20.5147 227.194 17.5707 226.81 17.144V17.08L227.578 15.352C227.578 14.8827 227.045 13.3253 225.978 10.68C224.911 8.03466 224.378 6.66933 224.378 6.584C224.378 6.328 225.509 5.624 227.77 4.472C230.031 3.27733 231.61 2.68 232.506 2.68C233.018 3.064 233.637 3.256 234.362 3.256C235.13 3.256 235.642 3.23466 235.898 3.192H236.09C236.559 3.192 237.242 3.42666 238.138 3.896C239.077 4.32266 239.546 4.64267 239.546 4.856C239.503 6.17866 239.482 7.544 239.482 8.952C239.482 10.3173 239.525 11.128 239.61 11.384C238.33 11.9387 237.69 12.8133 237.69 14.008C237.69 14.264 238.074 14.4987 238.842 14.712C239.61 14.8827 239.994 15.0107 239.994 15.096C240.293 21.4107 240.549 24.7173 240.762 25.016C240.975 25.3147 241.317 25.656 241.786 26.04C242.298 26.424 242.554 26.7013 242.554 26.872C242.554 27.4693 242.341 28.1093 241.914 28.792C241.487 29.4747 241.274 29.9653 241.274 30.264C241.786 33.2933 242.042 35.1707 242.042 35.896C242.639 36.152 243.045 36.28 243.258 36.28C243.471 36.28 243.727 36.088 244.026 35.704C244.367 35.32 244.623 34.9147 244.794 34.488C245.306 28.6853 245.669 25.72 245.882 25.592C247.119 24.7387 247.738 24.0133 247.738 23.416C247.738 23.288 247.674 23.16 247.546 23.032C246.266 22.136 245.626 21.2187 245.626 20.28C245.626 20.2373 245.882 19.9173 246.394 19.32C246.949 18.68 247.226 18.1253 247.226 17.656L247.802 7.928C247.802 7.24533 247.759 6.73333 247.674 6.392V6.328C247.674 5.944 248.527 5.19733 250.234 4.088C251.983 2.936 253.135 2.36 253.69 2.36C253.775 2.36 253.967 2.44533 254.266 2.616C254.607 2.744 255.162 2.808 255.93 2.808C256.698 2.808 257.231 2.78667 257.53 2.744C260.559 2.78667 262.074 3.10667 262.074 3.704V3.832C260.154 8.78133 259.151 11.6613 259.066 12.472C257.487 13.0693 256.698 13.752 256.698 14.52C256.698 14.776 256.975 15.0533 257.53 15.352C258.127 15.6507 258.426 15.8213 258.426 15.864C255.866 25.7627 254.586 32.504 254.586 36.088ZM277.42 21.304L287.852 20.728C289.174 20.728 289.836 20.92 289.836 21.304C289.836 22.456 289.345 24.2693 288.364 26.744C287.382 29.176 286.614 30.392 286.06 30.392L284.972 29.752C284.246 29.368 283.478 29.176 282.668 29.176C279.596 29.176 277.932 29.304 277.676 29.56C277.42 29.816 277.292 31.7573 277.292 35.384C277.292 38.968 277.633 41.1013 278.316 41.784C278.998 42.4667 280.406 42.808 282.54 42.808C284.673 42.808 286.017 42.5307 286.572 41.976C287.169 41.3787 287.766 40.5893 288.364 39.608C289.004 38.6267 289.516 37.7947 289.9 37.112C290.284 36.3867 290.497 36.024 290.54 36.024C290.924 36.024 291.649 36.5573 292.716 37.624C293.825 38.6907 294.38 39.48 294.38 39.992C294.38 40.4613 293.91 42.2107 292.972 45.24C292.076 48.2267 291.436 49.912 291.052 50.296C291.009 50.3813 290.838 50.424 290.54 50.424L286.892 50.04C285.356 50.04 284.076 50.104 283.052 50.232C282.028 50.3173 281.43 50.36 281.26 50.36C281.132 50.36 280.79 50.232 280.236 49.976C279.724 49.72 279.34 49.592 279.083 49.592C278.87 49.592 278.678 49.656 278.508 49.784C278.38 49.912 278.252 50.0827 278.124 50.296C277.825 50.808 277.441 51.064 276.972 51.064L274.284 50.744C273.046 50.744 271.702 50.8933 270.252 51.192C268.844 51.4907 267.82 51.64 267.18 51.64C266.54 51.64 265.75 51.512 264.812 51.256C263.916 51.0427 263.468 50.7867 263.468 50.488C263.468 50.4027 263.574 49.976 263.788 49.208C264.47 46.8187 264.812 45.1547 264.812 44.216C264.812 43.2347 264.769 42.5947 264.684 42.296C264.684 42.2533 264.94 42.0613 265.452 41.72C266.006 41.336 266.284 40.8453 266.284 40.248C266.284 39.6507 265.9 39.1173 265.132 38.648C264.364 38.136 263.98 37.8587 263.98 37.816L264.556 35.128C264.94 33.336 265.132 32.12 265.132 31.48C265.132 30.84 265.068 30.3493 264.94 30.008C264.854 29.6667 264.812 29.4747 264.812 29.432V29.304C265.153 27.6827 265.324 25.8907 265.324 23.928C265.324 21.9227 265.238 20.0667 265.068 18.36C264.94 16.6107 264.876 15.7147 264.876 15.672C264.876 15.6293 265.089 15.4373 265.516 15.096C265.942 14.7547 266.156 14.3707 266.156 13.944C266.156 13.4747 265.942 12.8347 265.516 12.024C264.321 9.592 263.724 6.776 263.724 3.576C263.724 3.10666 265.196 2.70133 268.14 2.36C271.084 1.976 273.9 1.784 276.588 1.784C277.142 1.784 277.612 2.01866 277.996 2.488C278.38 2.95733 278.7 3.192 278.956 3.192C279.254 3.192 280.513 2.97866 282.732 2.552C284.993 2.12533 286.764 1.912 288.044 1.912C291.158 1.912 292.716 2.27466 292.716 3C292.716 4.23733 292.46 5.90133 291.948 7.992C291.436 10.04 291.052 11.192 290.796 11.448C290.369 11.96 289.302 12.216 287.596 12.216C287.425 12.216 287.19 11.9173 286.892 11.32C286.636 10.68 286.124 10.0613 285.356 9.464C284.63 8.824 283.82 8.504 282.924 8.504C282.028 8.504 281.068 8.696 280.044 9.08C279.02 9.42133 278.38 9.72 278.124 9.976C277.868 10.232 277.74 11.32 277.74 13.24C277.74 15.1173 277.846 16.5253 278.06 17.464V17.656C278.06 17.9547 277.633 18.232 276.78 18.488C275.926 18.744 275.5 19.576 275.5 20.984C275.5 21.1973 276.14 21.304 277.42 21.304ZM306.016 25.336C305.418 25.848 305.013 26.104 304.8 26.104C304.586 26.104 304.117 26.4667 303.392 27.192C302.709 27.8747 302.304 28.216 302.176 28.216L298.848 27.768C298.165 27.512 297.248 26.8933 296.096 25.912L295.52 25.464C295.392 25.336 295.328 24.9307 295.328 24.248C295.328 23.5227 295.456 22.5413 295.712 21.304C296.01 20.0667 296.245 19.448 296.416 19.448C297.226 19.448 298.4 18.68 299.936 17.144C300.448 16.9733 300.917 16.888 301.344 16.888C303.861 17.5707 305.12 18.3173 305.12 19.128C304.906 19.512 304.8 19.896 304.8 20.28C304.8 20.408 305.12 20.7067 305.76 21.176C306.4 21.6453 306.72 22.0293 306.72 22.328C306.677 23.9067 306.442 24.9093 306.016 25.336ZM305.184 42.936L305.376 41.272V41.208C304.864 40.696 304.01 40.312 302.816 40.056C302.73 40.0133 302.368 39.992 301.728 39.992C301.088 39.992 299.872 40.2907 298.08 40.888C296.8 41.4853 295.904 42.936 295.392 45.24V45.304C295.392 45.5173 295.754 46.1787 296.48 47.288C296.437 47.416 296.416 47.608 296.416 47.864L296.544 49.144C296.501 49.3573 296.821 49.6347 297.504 49.976C298.741 50.6587 299.936 51 301.088 51C302.282 51 302.986 50.808 303.2 50.424C303.413 50.04 303.733 49.72 304.16 49.464C304.629 49.1653 305.056 48.9307 305.44 48.76C305.866 48.5467 306.101 48.4187 306.144 48.376C306.698 47.2667 306.976 46.328 306.976 45.56C306.976 44.792 306.933 44.3653 306.848 44.28C306.762 44.1947 306.506 44.1093 306.08 44.024C305.696 43.9387 305.44 43.8107 305.312 43.64C305.226 43.4693 305.184 43.2347 305.184 42.936Z" fill="black"/>
</svg>
